<svg id="Layer_1" data-name="Layer 1" xmlns="http://www.w3.org/2000/svg" xmlns:xlink="http://www.w3.org/1999/xlink" viewBox="0 0 507.76 558.93"><defs><style>.cls-1{fill:none;}.cls-2{fill:#ffedb1;}.cls-3{fill:#ffe17d;}.cls-4{fill:#c4deff;}.cls-5{fill:#c9c6ca;}.cls-6{fill:#ff9ba0;}.cls-7{fill:#ff8087;}.cls-8{fill:#a5cdff;}.cls-9{clip-path:url(#clip-path);}</style><clipPath id="clip-path" transform="translate(0 -152.07)"><polyline class="cls-1" points="508 0 508 711 0 711 0 0"/></clipPath></defs><rect class="cls-2" x="48.56" y="7.5" width="410.63" height="543.93"/><path class="cls-3" d="M48.56,217.06v85.4a45.11,45.11,0,0,0,41.06,0,45.13,45.13,0,0,0,41.07,0,45.11,45.11,0,0,0,41.06,0,45.13,45.13,0,0,0,41.07,0,45.11,45.11,0,0,0,41.06,0,45.11,45.11,0,0,0,41.06,0,45.11,45.11,0,0,0,41.06,0,45.13,45.13,0,0,0,41.07,0,45.11,45.11,0,0,0,41.06,0,45.13,45.13,0,0,0,41.07,0v-85.4Z" transform="translate(0 -152.07)"/><rect class="cls-4" x="97.84" y="89.63" width="312.08" height="379.68"/><rect class="cls-5" x="97.84" y="436.45" width="312.08" height="32.85"/><rect class="cls-6" x="48.56" y="469.31" width="410.63" height="82.13"/><path class="cls-7" d="M426.34,646H81.41a8.2,8.2,0,0,1-8.21-8.19V621.37H434.55V637.8a8.2,8.2,0,0,1-8.19,8.21h0Z" transform="translate(0 -152.07)"/><path class="cls-8" d="M97.84,305.62a44.55,44.55,0,0,0,32.85-3.16,45.11,45.11,0,0,0,41.06,0,45.13,45.13,0,0,0,41.07,0,45.11,45.11,0,0,0,41.06,0,45.11,45.11,0,0,0,41.06,0,45.11,45.11,0,0,0,41.06,0,45.13,45.13,0,0,0,41.07,0,44.55,44.55,0,0,0,32.85,3.16V241.7H97.84Z" transform="translate(0 -152.07)"/><path class="cls-7" d="M7.5,241.7v20.53a20.53,20.53,0,0,0,41.06,0,20.53,20.53,0,0,0,41.06,0,20.54,20.54,0,0,0,41.07,0,20.53,20.53,0,0,0,41.06,0v0a20.54,20.54,0,0,0,41.07,0,20.53,20.53,0,0,0,41.06,0v0a20.53,20.53,0,1,0,41.06,0v0a20.53,20.53,0,1,0,41.06,0v0a20.54,20.54,0,0,0,41.07,0,20.53,20.53,0,1,0,41.06,0v0a20.54,20.54,0,0,0,41.07,0,20.53,20.53,0,0,0,41.06,0V241.7Z" transform="translate(0 -152.07)"/><g class="cls-9"><path class="cls-6" d="M459.19,192.42H48.56L7.5,241.7H500.25Z" transform="translate(0 -152.07)"/><path d="M139.59,152.08h-91a7.5,7.5,0,0,0-7.5,7.5h0v30.14L1.74,236.9h0A7.38,7.38,0,0,0,0,241.7v20.53A28,28,0,0,0,41.06,287V696H32.14a7.5,7.5,0,1,0,0,15H475.62a7.5,7.5,0,0,0,0-15h-8.93V287a28,28,0,0,0,41.07-24.8V241.7a7.53,7.53,0,0,0-1.74-4.8h0l-39.33-47.18V159.57a7.5,7.5,0,0,0-7.5-7.5H139.59ZM41.05,262.22a13,13,0,0,1-26.06,0v-13H41.05ZM451.69,696H56.06V628.87H451.69ZM69.09,290.26a28,28,0,0,0,20.53-9l.75.79V613.87H56.06V287a27.81,27.81,0,0,0,13,3.23Zm-13-28v-13H82.15v13a13,13,0,0,1-26.06,0Zm95.16,28a28,28,0,0,0,20.53-9,28,28,0,0,0,39.57,1.5q.78-.72,1.5-1.5a28,28,0,0,0,39.57,1.49c.52-.48,1-1,1.49-1.49a28,28,0,0,0,39.57,1.49c.52-.48,1-1,1.49-1.49a28,28,0,0,0,39.57,1.49c.52-.48,1-1,1.49-1.49a28,28,0,0,0,39.57,1.5q.78-.72,1.5-1.5a27.91,27.91,0,0,0,25.35,8.58V581H147.11a7.5,7.5,0,0,0,0,15h255.3v17.85H105.34V596h8.92a7.5,7.5,0,0,0,0-15h-8.92V289.84a27.91,27.91,0,0,0,25.35-8.58,28,28,0,0,0,20.53,9Zm-13-28v-13h26.06v13a13,13,0,0,1-26.06,0Zm41.06,0v-13h26.06v13a13,13,0,0,1-26.06,0Zm41.06,0v-13h26.06v13a13,13,0,0,1-26.06,0Zm41.07,0v-13H287.5v13a13,13,0,1,1-26.06,0Zm41.06,0v-13h26v13a13,13,0,0,1-26.06,0Zm41.06,0v-13h26.07v13a13,13,0,1,1-26.07,0Zm41.07,0v-13h26.06v13a13,13,0,1,1-26.06,0Zm-261.38,0a13,13,0,1,1-26.07,0v-13h26.07ZM451.75,613.9H417.42V282.07c.26-.26.5-.52.75-.79A28,28,0,0,0,451.69,287Zm0-351.64a13,13,0,1,1-26.06,0v-13h26.06Zm-428.18-28L52.13,200H409.91a7.5,7.5,0,0,0,0-15H56.06V167.07H451.69v17.85h-8.92a7.5,7.5,0,0,0,0,15h12.91l28.56,34.28Zm469.24,28a13,13,0,0,1-26.06,0v-13h26.06Z" transform="translate(0 -152.07)"/></g></svg>