<svg id="Layer_1" data-name="Layer 1" xmlns="http://www.w3.org/2000/svg" viewBox="0 0 503.24 367.71"><defs><style>.cls-1{fill:#dfdfdf;}.cls-2{fill:#d3d3d3;}.cls-3{fill:#ffe17d;}.cls-4{fill:#ffd164;}.cls-5{fill:#c8c8c8;}.cls-6{fill:#ffc350;}.cls-7{fill:#ebd2ff;}.cls-8{fill:#d7bef0;}.cls-9{fill:#a5cdff;}.cls-10{fill:#8cb4eb;}.cls-11{fill:#cbcbcb;}.cls-12{fill:#bbb;}.cls-13{fill:#dedede;}.cls-14{fill:#e0e0e0;}.cls-15{fill:#cfcfcf;}.cls-16{fill:#bababa;}.cls-17{fill:#a7a7a7;}</style></defs><path class="cls-1" d="M439.57,422.35,481.24,464a11.78,11.78,0,0,0,16.66,0l8.34-8.34-58.33-58.33-8.34,8.34a11.78,11.78,0,0,0,0,16.66Zm0,0" transform="translate(-108.38 -176)"/><path class="cls-2" d="M481.24,464a11.78,11.78,0,0,0,16.66,0l8.34-8.34L489.57,439l-16.66,16.67Zm0,0" transform="translate(-108.38 -176)"/><path class="cls-1" d="M319.92,424h80.16a16,16,0,0,0,16-16v-16H303.89v16a16,16,0,0,0,16,16Zm0,0" transform="translate(-108.38 -176)"/><path class="cls-2" d="M376,424h24.05a16,16,0,0,0,16-16v-16H392.06v16a16,16,0,0,1-16,16Zm0,0" transform="translate(-108.38 -176)"/><path class="cls-3" d="M238.76,464l41.67-41.67a11.78,11.78,0,0,0,0-16.66l-8.34-8.34-58.33,58.34,8.33,8.33a11.79,11.79,0,0,0,16.67,0Zm0,0" transform="translate(-108.38 -176)"/><path class="cls-4" d="M267.93,434.85l12.5-12.5a11.78,11.78,0,0,0,0-16.66l-8.34-8.34-12.5,12.5,8.34,8.34a11.78,11.78,0,0,1,0,16.66Zm0,0" transform="translate(-108.38 -176)"/><path class="cls-2" d="M360,536.21a22.4,22.4,0,0,0,22.34-24L376,424H344l-6.31,88.24a22.4,22.4,0,0,0,22.34,24Zm0,0" transform="translate(-108.38 -176)"/><path class="cls-4" d="M317.92,501.52a16.46,16.46,0,0,0-.85-24.08l-49.15-42.59-16.66,16.67,42.59,49.14a16.45,16.45,0,0,0,24.07.86Zm0,0" transform="translate(-108.38 -176)"/><path class="cls-2" d="M402.08,501.52a16.45,16.45,0,0,0,24.07-.86l42.59-49.14-16.67-16.67-49.13,42.59a16.46,16.46,0,0,0-.86,24.08Zm0,0" transform="translate(-108.38 -176)"/><path class="cls-5" d="M447.14,464.91l11.6-13.39-16.67-16.67-13.39,11.61Zm0,0" transform="translate(-108.38 -176)"/><path class="cls-5" d="M377.75,448,376,424H344l-1.72,24Zm0,0" transform="translate(-108.38 -176)"/><path class="cls-6" d="M281.32,446.46l-13.39-11.61-16.67,16.67,11.61,13.39Zm0,0" transform="translate(-108.38 -176)"/><path class="cls-7" d="M276.28,393.16,167.91,300.27a11.78,11.78,0,0,0-16,.61l-34.57,34.57a11.78,11.78,0,0,0-.61,16l92.89,108.38Zm0,0" transform="translate(-108.38 -176)"/><path class="cls-8" d="M225.73,418.71l-27.65,27.65,11.54,13.47,66.66-66.67L167.91,300.27a11.78,11.78,0,0,0-16,.61L144,308.79l81.18,76.06a23.56,23.56,0,0,1,.55,33.86Zm0,0" transform="translate(-108.38 -176)"/><path class="cls-9" d="M235.8,358.46c-14.73,12.92-23,6.56-38.68,22.2s-9.29,23.95-22.2,38.68l34.7,40.49,66.66-66.67Zm0,0" transform="translate(-108.38 -176)"/><path class="cls-10" d="M235.8,358.46c-10,8.75-17,8.67-25.38,12.56l14.76,13.83a23.56,23.56,0,0,1,.55,33.86l-27.65,27.65,11.54,13.47,66.66-66.67Zm0,0" transform="translate(-108.38 -176)"/><path class="cls-11" d="M510.41,459.85,603.3,351.48a11.8,11.8,0,0,0-.61-16l-34.57-34.56a11.78,11.78,0,0,0-16-.62l-108.38,92.9Zm0,0" transform="translate(-108.38 -176)"/><path class="cls-12" d="M484.86,409.3,457.2,381.65l-13.46,11.54,66.67,66.66L603.3,351.48a11.8,11.8,0,0,0-.61-16l-7.91-7.9-76.06,81.18a23.56,23.56,0,0,1-33.86.55Zm0,0" transform="translate(-108.38 -176)"/><path class="cls-13" d="M545.11,419.37c-12.92-14.73-6.56-23-22.2-38.68s-23.95-9.29-38.68-22.2l-40.49,34.7,66.67,66.66Zm0,0" transform="translate(-108.38 -176)"/><path class="cls-11" d="M545.11,419.37c-8.75-10-8.67-17-12.56-25.38l-13.83,14.76a23.56,23.56,0,0,1-33.86.55L457.2,381.65l-13.46,11.54,66.67,66.66Zm0,0" transform="translate(-108.38 -176)"/><path class="cls-14" d="M424.13,391.92,409.23,198.3a16,16,0,0,0-16-14.8h-66.5a16,16,0,0,0-16,14.8l-14.9,193.62Zm0,0" transform="translate(-108.38 -176)"/><path class="cls-15" d="M350.92,367.87h-53.2l-1.85,24.05H424.13L409.23,198.3a16,16,0,0,0-16-14.8H378L383,334.76a32.07,32.07,0,0,1-32.05,33.11Zm0,0" transform="translate(-108.38 -176)"/><path class="cls-16" d="M302.63,304l-6.76,87.88H424.13l-6.76-87.87c-25.32,2.14-27.7,15.72-57.3,15.72s-32-13.65-57.44-15.73Zm0,0" transform="translate(-108.38 -176)"/><path class="cls-17" d="M382.36,316.18l.61,18.58a32.07,32.07,0,0,1-32.05,33.11h-53.2l-1.85,24.05H424.13l-6.76-87.87c-16.91,1.43-23.62,7.95-35,12.13Zm0,0" transform="translate(-108.38 -176)"/><path d="M435.67,401.79a17.31,17.31,0,0,0,0,24.46l8.31,8.31-44.67,38.71a22,22,0,1,0,31,31L469,459.6l8.31,8.32a17.31,17.31,0,0,0,24.46,0l4.44-4.43,11.67-3.92,89.57-104.5a17.36,17.36,0,0,0-.9-23.48L572,297a17.38,17.38,0,0,0-23.49-.9L444,385.68M422,497.05a10.95,10.95,0,1,1-15.45-15.44l45.27-39.23,9.4,9.41Zm72-36.93a6.27,6.27,0,0,1-8.87,0l-41.67-41.66a6.29,6.29,0,0,1,0-8.87l4.44-4.44,50.53,50.54Zm61.7-155.64a6.28,6.28,0,0,1,8.51.33l34.57,34.56a6.31,6.31,0,0,1,.32,8.52l-54.27,63.32a28.35,28.35,0,0,1-3.33-5,5.51,5.51,0,0,0-9.83,5,40.91,40.91,0,0,0,5.9,8.52l-27.49,32.07L451.85,393.5,483.91,366c7.26,6.43,13.37,8.12,18.81,9.6s10,2.73,16.3,9a40.26,40.26,0,0,1,3.41,3.87,5.52,5.52,0,0,0,8.76-6.71,51.42,51.42,0,0,0-4.38-5c-8.32-8.32-15.16-10.18-21.19-11.83-4.47-1.22-8.44-2.31-13.23-6.22Z" transform="translate(-108.38 -176)"/><path d="M431.07,384.42,416.72,197.73A23.65,23.65,0,0,0,393.25,176h-66.5a23.63,23.63,0,0,0-23.46,21.73L288.93,384.42,296.39,408a23.55,23.55,0,0,0,23.53,23.53h16l-5.73,80.21a29.89,29.89,0,1,0,59.63,0l-5.72-80.21h16A23.56,23.56,0,0,0,423.61,408v-8.53Zm-121.49-72.9c8.38.84,13.25,3.62,18.73,6.75,7.39,4.22,15.75,9,31.76,9s24.39-4.78,31.78-9c5.44-3.11,10.29-5.87,18.57-6.74L416,384.42H304Zm65.28,201.24a14.9,14.9,0,1,1-29.72,0L351,431.48h18.1ZM408.61,408a8.53,8.53,0,0,1-8.53,8.53H319.92a8.54,8.54,0,0,1-8.53-8.53v-8.53h97.22ZM318.24,198.88a8.57,8.57,0,0,1,8.51-7.88h66.5a8.57,8.57,0,0,1,8.51,7.88l7.51,97.7c-11.66,1.14-18.62,5.1-24.86,8.67-6.61,3.77-12.3,7-24.34,7s-17.72-3.25-24.31-7c-6.27-3.59-13.27-7.57-25-8.69Z" transform="translate(-108.38 -176)"/><path d="M276,385.68l-104.5-89.57A17.38,17.38,0,0,0,148,297l-34.56,34.57a17.39,17.39,0,0,0-.91,23.49l89.58,104.49,11.67,3.92,4.43,4.44a17.33,17.33,0,0,0,24.47,0L251,459.6l38.71,44.67a22,22,0,1,0,31-31L276,434.57l8.31-8.32a17.3,17.3,0,0,0,0-24.46l-4.43-4.44m33.57,84.26A10.95,10.95,0,1,1,298,497.05l-39.22-45.26,9.4-9.41Zm-36.93-72a6.29,6.29,0,0,1,0,8.87l-41.67,41.66a6.27,6.27,0,0,1-8.87,0l-4.43-4.43,4.43-4.44a5.51,5.51,0,0,0-7.8-7.79l-8.28,8.28-27.49-32.06c6.42-7.26,8.1-13.36,9.59-18.8s2.75-10.05,9-16.32,10.92-7.53,16.32-9,11.51-3.16,18.74-9.54l32.07,27.49-33.29,33.29a5.52,5.52,0,1,0,7.8,7.8l29.43-29.44Zm-155.64-61.7a6.31,6.31,0,0,1,.32-8.52l34.57-34.56a6.28,6.28,0,0,1,8.51-.33l63.32,54.27c-4.77,3.86-8.73,4.95-13.18,6.17-6,1.64-12.87,3.51-21.21,11.84S183,391.94,181.37,398c-1.22,4.47-2.31,8.44-6.21,13.24Zm0,0" transform="translate(-108.38 -176)"/></svg>