<svg height="512pt" viewBox="-144 0 512 512.0029" width="512pt" xmlns="http://www.w3.org/2000/svg"><path d="m207.90625 103.695312c0 53.125-43.070312 96.195313-96.195312 96.195313s-96.195313-43.070313-96.195313-96.195313 43.070313-96.195312 96.195313-96.195312 96.195312 43.070312 96.195312 96.195312zm0 0" fill="#ff9ba0"/><path d="m199.886719 167.824219h-176.355469c-8.851562 0-16.03125-7.179688-16.03125-16.03125 0-8.855469 7.179688-16.03125 16.03125-16.03125h176.355469c8.855469 0 16.03125 7.175781 16.03125 16.03125.003906 8.851562-7.175781 16.03125-16.03125 16.03125zm0 0" fill="#ff9ba0"/><path d="m23.53125 167.824219 88.179688 336.675781 88.175781-336.675781zm0 0" fill="#f7d291"/><path d="m193.589844 191.871094 6.296875-24.046875h-176.355469l88.179688 336.675781-22.058594-286.734375c-1.074219-13.96875 9.96875-25.894531 23.976562-25.894531zm0 0" fill="#f0c382"/><path d="m199.03125 135.761719h-94.859375c-18.671875 0-35.695313-10.789063-43.613281-27.703125-5.746094-12.277344-8.96875-25.96875-8.96875-40.4375 0-17.292969 4.625-33.480469 12.617187-47.503906-29.058593 16.550781-48.691406 47.746093-48.691406 83.578124 0 11.359376 2.09375 22.191407 5.726563 32.292969-8.835938 1.277344-15.371094 9.675781-13.382813 19.242188 1.558594 7.5 8.652344 12.59375 16.316406 12.59375h175.714844c9.734375 0 17.445313-8.679688 15.8125-18.726563-1.285156-7.878906-8.6875-13.335937-16.671875-13.335937zm0 0" fill="#ff8087"/><path d="m211.632812 131.464844c-.019531-.023438-.058593-.121094-.03125-.222656 3.667969-13.148438 4.6875-26.605469 3.035157-40-2.855469-23.144532-15.589844-46.347657-34.933594-63.660157-19.371094-17.339843-43.84375-27.390625-67.140625-27.57812475-27.871094-.20703125-54.101562 10.45312475-73.878906 30.07031275-19.773438 19.617187-30.667969 45.765625-30.667969 73.617187 0 9.296875 1.3125 18.570313 3.859375 27.667969-7.085938 4.0625-11.875 11.695313-11.875 20.429687 0 10.90625 7.460938 20.101563 17.542969 22.757813l86.910156 331.855469c.867187 3.300781 3.847656 5.601562 7.257813 5.601562 3.410156 0 6.390624-2.300781 7.253906-5.601562l86.949218-331.992188c8.472657-2.34375 15.191407-9.039062 16.984376-17.628906 2.105468-10.082031-2.433594-20.265625-11.265626-25.316406zm-32.402343 85.628906-9.574219 36.550781-13.671875-13.675781 23.058594-23.0625zm-51.496094 196.628906-5.417969-5.414062 9.257813-9.261719zm-83.359375-196.8125 23.0625 23.058594-13.675781 13.675781-9.574219-36.550781zm118.621094 62.171875-17.617188 17.617188-23.0625-23.0625 23.0625-23.0625 19.875 19.878906zm-102.570313 0-2.261719-8.628906 19.878907-19.875 23.0625 23.0625-23.0625 23.058594zm51.285157 5.164063 23.0625 23.058594-23.0625 23.0625-23.0625-23.0625zm0-21.214844-23.0625-23.0625 23.0625-23.0625 23.0625 23.0625zm-33.667969-33.667969-23.0625-23.0625 23.0625-23.058593 23.0625 23.058593zm0 88.546875 23.0625 23.0625-19.394531 19.390625-9.570313-36.546875zm13.800781 81.136719 9.261719 9.261719-5.417969 5.414062zm-3.195312-24.40625 23.0625-23.0625 23.0625 23.0625-23.0625 23.0625zm53.058593-14.277344-19.390625-19.390625 23.0625-23.0625 5.902344 5.902344zm3.671875-131-23.0625-23.0625 23.0625-23.058593 23.0625 23.058593zm-33.667968-33.667969-20.371094-20.371093h40.742187zm-67.335938 0-7.84375-7.84375-3.28125-12.527343h31.496094zm67.335938 279.203126-11.621094-44.363282 11.621094-11.621094 11.621093 11.621094zm96.507812-321.183594c-.789062 3.769531-4.636719 6.609375-8.953125 6.609375h-15.410156c-4.140625 0-7.5 3.355469-7.5 7.5 0 4.140625 3.359375 7.5 7.5 7.5h6.316406l-3.28125 12.527343-7.84375 7.84375-22.273437-22.273437c1.542968-1.375 2.519531-3.371094 2.519531-5.597656 0-4.144531-3.359375-7.5-7.5-7.5h-128.257813c-4.707031 0-8.535156-3.828125-8.535156-8.53125 0-4.707031 3.828125-8.535157 8.535156-8.535157h24.046875c4.140625 0 7.5-3.355468 7.5-7.5 0-4.140624-3.359375-7.5-7.5-7.5h-20.996093c-2.355469-8.082031-3.570313-16.320312-3.570313-24.5625 0-23.828124 9.316406-46.1875 26.234375-62.96875 16.914062-16.78125 39.378906-25.90625 63.191406-25.722656 41.417969.335938 82.214844 36.820313 87.308594 78.078125 1.40625 11.417969.535156 22.902344-2.597656 34.128907-1.875 6.722656 1 13.816406 6.992187 17.246093 2.476563 1.417969 5.027344 4.691407 4.074219 9.257813zm0 0"/></svg>