<svg height="512pt" viewBox="-88 0 512 512" width="512pt" xmlns="http://www.w3.org/2000/svg"><path d="m147.78125 288.066406v196.394532c0 11.066406 8.972656 20.039062 20.039062 20.039062 11.070313 0 20.042969-8.972656 20.042969-20.039062v-196.394532zm0 0" fill="#f5dcb4"/><path d="m147.78125 333.453125c6.421875 2.125 13.15625 3.289063 20.039062 3.289063 6.886719 0 13.617188-1.164063 20.042969-3.289063v-45.386719h-40.082031zm0 0" fill="#ebc9a0"/><path d="m236.53125 7.5c-21.796875 0-41.769531 7.832031-57.476562 20.859375-6.527344 5.414063-15.9375 5.414063-22.460938 0-15.710938-13.027344-35.6875-20.859375-57.480469-20.859375-50.597656 0-91.613281 41.988281-91.613281 93.789062 0 88.667969 81.398438 165.433594 137.640625 204.320313 13.664063 9.445313 31.699219 9.445313 45.359375 0 56.246094-38.886719 137.644531-115.652344 137.644531-204.320313 0-51.800781-41.015625-93.789062-91.613281-93.789062zm0 0" fill="#ff8087"/><path d="m71.628906 100.710938c0-40.527344 23.894532-74.949219 57.296875-88.054688-9.34375-3.3125-19.359375-5.15625-29.8125-5.15625-50.597656 0-91.613281 41.988281-91.613281 93.789062 0 88.667969 81.398438 165.433594 137.640625 204.320313 13.664063 9.445313 31.699219 9.445313 45.359375 0 2.140625-1.480469 4.320312-3.03125 6.527344-4.617187-53.09375-39.980469-125.398438-114.507813-125.398438-200.28125zm0 0" fill="#e6646e"/><path d="m174.074219 271.503906c14.488281 14.488282 26.234375 15.265625 38.351562 17.90625 53.289063-41.949218 115.71875-110.46875 115.71875-188.121094 0-51.796874-41.015625-93.789062-91.613281-93.789062-21.796875 0-41.769531 7.835938-57.476562 20.863281-6.527344 5.410157-15.9375 5.410157-22.460938 0-15.710938-13.03125-35.6875-20.863281-57.480469-20.863281-45.328125 0-82.871093 33.734375-90.214843 77.996094 9.054687 2.007812 18.335937 5.160156 29.152343 15.976562 25.496094 25.496094 8.492188 42.5 33.988281 68 25.503907 25.503906 42.511719 8.5 68.015626 34 25.511718 25.515625 8.507812 42.519532 34.019531 68.03125zm0 0" fill="#ff9ba0"/><path d="m71.628906 100.710938c0-40.527344 23.894532-74.949219 57.296875-88.054688-9.34375-3.3125-19.359375-5.15625-29.8125-5.15625-45.328125 0-82.871093 33.734375-90.214843 77.996094 9.054687 2.007812 18.335937 5.160156 29.152343 15.976562 25.496094 25.496094 8.492188 42.5 33.988281 68 7.660157 7.65625 14.542969 11.449219 21.128907 13.742188-13.085938-25.617188-21.539063-53.386719-21.539063-82.503906zm0 0" fill="#ff8087"/><path d="m174.074219 167.296875c25.503906 25.503906 42.507812 8.5 68.011719 34.003906 16.441406 16.441407 15.269531 29.351563 19.148437 43.277344 36.488281-39.367187 66.910156-89.09375 66.910156-143.289063 0-51.800781-41.015625-93.789062-91.613281-93.789062-21.796875 0-41.769531 7.832031-57.480469 20.859375-6.523437 5.414063-15.933593 5.414063-22.457031 0-15.710938-13.027344-35.6875-20.859375-57.480469-20.859375-17.039062 0-32.929687 4.847656-46.59375 13.140625 4.367188 14.445313 2.554688 27.65625 19.519531 44.621094 25.503907 25.503906 42.507813 8.5 68.011719 34.003906 25.515625 25.511719 8.511719 42.515625 34.023438 68.03125zm0 0" fill="#ebd2ff"/><path d="m99.113281 7.5c-17.039062 0-32.929687 4.847656-46.59375 13.140625 4.367188 14.445313 2.554688 27.65625 19.519531 44.621094 1.566407 1.5625 3.097657 2.960937 4.601563 4.226562 8.664063-26.34375 27.921875-47.269531 52.285156-56.832031-9.34375-3.3125-19.359375-5.15625-29.8125-5.15625zm0 0" fill="#d7bef0"/><path d="m328.144531 101.289062c0-51.800781-41.015625-93.789062-91.613281-93.789062-21.796875 0-41.769531 7.832031-57.476562 20.859375-6.527344 5.414063-15.9375 5.414063-22.460938 0-8.660156-7.179687-18.644531-12.707031-29.488281-16.289063 2.554687 11.949219 3.496093 23.574219 17.789062 37.867188 25.503907 25.503906 42.507813 8.5 68.011719 34 25.515625 25.515625 8.507812 42.519531 34.023438 68.03125 23.019531 23.019531 39.136718 11.507812 60.808593 27.785156 12.53125-24.484375 20.40625-50.898437 20.40625-78.464844zm0 0" fill="#fff6d8"/><path d="m236.53125 7.5c-21.796875 0-41.769531 7.832031-57.476562 20.859375-.023438.019531-.042969.027344-.066407.046875 23.996094 21.6875 40.703125 6.914062 65.273438 31.484375 25.515625 25.515625 8.507812 42.519531 34.019531 68.03125 16.257812 16.253906 29.066406 15.265625 42.816406 18.996094 4.476563-14.746094 7.046875-30 7.046875-45.628907 0-51.800781-41.015625-93.789062-91.613281-93.789062zm0 0" fill="#ffedb1"/><path d="m236.53125 0c-22.589844 0-44.703125 8.023438-62.265625 22.589844-3.734375 3.09375-9.152344 3.09375-12.886719 0-17.5625-14.566406-39.675781-22.589844-62.265625-22.589844-54.652343 0-99.113281 45.4375-99.113281 101.289062 0 41.242188 16.59375 83.445313 49.3125 125.4375 31.667969 40.632813 70.339844 70.320313 90.96875 84.636719v173.097657c0 15.183593 12.355469 27.539062 27.542969 27.539062s27.539062-12.355469 27.539062-27.539062v-173.097657c20.628907-14.316406 59.304688-44.003906 90.96875-84.636719 32.722657-41.992187 49.3125-84.195312 49.3125-125.4375 0-55.851562-44.460937-101.289062-99.113281-101.289062zm-58.273438 37.640625c11.328126 8.742187 21.476563 10.792969 30.527344 12.605469 1.789063.355468 3.480469.695312 5.1875 1.082031.558594.125 1.117188.1875 1.664063.1875 3.425781 0 6.519531-2.359375 7.308593-5.839844.917969-4.042969-1.613281-8.058593-5.65625-8.976562-1.890624-.429688-3.757812-.800781-5.5625-1.164063-7.074218-1.414062-13.414062-2.6875-20.328124-6.984375 13.457031-8.882812 28.886718-13.550781 45.132812-13.550781 46.378906 0 84.113281 38.710938 84.113281 86.289062 0 12.117188-1.601562 24.367188-4.777343 36.710938-.703126-.144531-1.414063-.292969-2.105469-.429688-10.210938-2.042968-19.03125-3.804687-30.175781-14.953124-11.152344-11.148438-12.914063-19.96875-14.960938-30.183594-2.203125-11.007813-4.699219-23.484375-19.058594-37.84375-2.929687-2.929688-7.679687-2.929688-10.605468 0-2.929688 2.925781-2.929688 7.675781 0 10.605468 11.148437 11.148438 12.914062 19.96875 14.957031 30.183594 2.203125 11.007813 4.699219 23.484375 19.0625 37.847656 14.359375 14.355469 26.832031 16.851563 37.839843 19.050782.21875.046875.425782.089844.644532.132812-1.9375 5.464844-4.179688 10.949219-6.722656 16.441406-8.105469-4.378906-15.59375-5.882812-22.339844-7.234374-10.207032-2.039063-19.027344-3.804688-30.171875-14.949219-11.152344-11.152344-12.917969-19.972657-14.960938-30.183594-2.203125-11.007813-4.699219-23.484375-19.058593-37.847656-14.359376-14.355469-26.835938-16.851563-37.839844-19.050781-10.210938-2.042969-19.027344-3.804688-30.175782-14.949219-7.324218-7.328125-10.585937-13.648438-12.546874-20.019531 4.953124 2.648437 9.695312 5.820312 14.15625 9.519531 7.546874 6.257812 17.867187 7.425781 26.453124 3.503906zm-10.4375 459.359375c-6.914062 0-12.539062-5.625-12.539062-12.539062v-166c4.097656 1.113281 8.316406 1.675781 12.539062 1.675781 4.222657 0 8.445313-.5625 12.542969-1.675781v166c0 6.914062-5.625 12.539062-12.542969 12.539062zm42.675782-215.652344c-.3125-.0625-.632813-.132812-.945313-.195312-10.210937-2.042969-19.027343-3.804688-30.175781-14.949219-11.148438-11.152344-12.914062-19.972656-14.957031-30.183594-2.203125-11.007812-4.699219-23.488281-19.0625-37.847656-14.359375-14.359375-26.832031-16.855469-37.839844-19.054687l-1.585937-.316407c-4.058594-.820312-8.015626 1.804688-8.839844 5.863281-.820313 4.058594 1.804687 8.015626 5.863281 8.839844l1.621094.324219c10.210937 2.039063 19.027343 3.804687 30.175781 14.949219 11.148438 11.152344 12.914062 19.972656 14.960938 30.183594 2.199218 11.007812 4.695312 23.484374 19.058593 37.847656 9.574219 9.574218 18.308594 13.871094 26.328125 16.324218-3.234375 2.363282-6.210937 4.476563-8.863281 6.308594-11.011719 7.613282-25.8125 7.613282-36.828125 0-19.769531-13.667968-57.523438-42.488281-88.261719-81.933594-30.621093-39.292968-46.144531-78.394531-46.144531-116.21875 0-2.09375.097656-4.167968.242188-6.226562 5.171874 1.917969 10.972656 5.179688 17.503906 11.710938 11.144531 11.144531 12.90625 19.960937 14.945312 30.167968 2.199219 11.003906 4.691406 23.480469 19.046875 37.832032 1.460938 1.464843 3.382813 2.199218 5.300781 2.199218 1.921876 0 3.839844-.734375 5.304688-2.199218 2.929688-2.925782 2.929688-7.675782 0-10.605469-11.144531-11.140625-12.90625-19.957031-14.945312-30.164063-2.199219-11.007812-4.6875-23.480468-19.042969-37.835937-9.429688-9.425781-17.921875-13.6875-25.765625-16.144531 4.695312-18.9375 15.519531-35.375 30.160156-46.996094 2.183594 10.933594 4.761719 23.3125 18.988281 37.539062 14.355469 14.359375 26.832031 16.851563 37.835938 19.050782 10.210937 2.042968 19.03125 3.808593 30.175781 14.953124 11.152344 11.152344 12.914062 19.96875 14.960938 30.183594 2.203124 11.007813 4.699218 23.484375 19.058593 37.847656 14.359375 14.359376 26.835938 16.851563 37.839844 19.050782 10.210937 2.042968 19.03125 3.808594 30.175781 14.953125 11.15625 11.15625 12.921875 19.980469 14.96875 30.195312.367188 1.839844.765625 3.742188 1.207032 5.671875-14.628907 15.433594-29.527344 28.527344-42.464844 38.875zm64.003906-63.839844c-2.980469 3.824219-6.027344 7.542969-9.117188 11.164063-2.175781-9.707031-5.832031-20.515625-17.992187-32.675781-14.359375-14.355469-26.832031-16.851563-37.839844-19.050782-10.210937-2.042968-19.027343-3.804687-30.171875-14.953124-11.152344-11.148438-12.917968-19.96875-14.960937-30.183594-2.203125-11.007813-4.699219-23.484375-19.0625-37.847656-14.359375-14.355469-26.832031-16.851563-37.839844-19.050782-10.207031-2.042968-19.027344-3.804687-30.171875-14.953125-11.144531-11.140625-12.90625-19.957031-14.945312-30.164062-.359376-1.804688-.730469-3.640625-1.15625-5.515625 11.390624-5.917969 24.25-9.277344 37.871093-9.277344 7.375 0 14.585938.964844 21.519531 2.84375 2.175782 10.898438 4.792969 23.230469 18.957032 37.394531 14.359375 14.359375 26.832031 16.855469 37.839844 19.054688 10.207031 2.042969 19.027343 3.804687 30.171874 14.949219 11.152344 11.152343 12.917969 19.972656 14.960938 30.1875 2.203125 11.007812 4.699219 23.480468 19.058594 37.84375 14.359375 14.359374 26.835937 16.855468 37.84375 19.054687 6.519531 1.304687 12.292968 2.464844 18.488281 5.90625-6.457031 11.71875-14.269531 23.488281-23.453125 35.273437zm0 0"/></svg>