<svg height="512pt" viewBox="-136 0 512 512" width="512pt" xmlns="http://www.w3.org/2000/svg"><path d="m99.6875 336.160156v148.300782c0 11.066406 8.96875 20.039062 20.039062 20.039062 11.066407 0 20.039063-8.972656 20.039063-20.039062v-148.300782zm0 0" fill="#f5dcb4"/><path d="m99.6875 374.191406c6.527344 1.332032 13.214844 2.050782 20.039062 2.050782 6.824219 0 13.511719-.71875 20.039063-2.050782v-38.03125h-40.078125zm0 0" fill="#ebc9a0"/><path d="m231.953125 179.847656c0-95.183594-50.246094-172.347656-112.226563-172.347656-61.980468 0-112.226562 77.164062-112.226562 172.347656s50.246094 172.347656 112.226562 172.347656c61.980469 0 112.226563-77.164062 112.226563-172.347656zm0 0" fill="#b67f5f"/><path d="m143.773438 328.144531c-61.980469 0-112.226563-77.164062-112.226563-172.347656 0-52.472656 15.320313-99.378906 39.40625-130.992187-37.515625 27.890624-63.453125 86.738281-63.453125 155.042968 0 95.183594 50.242188 172.34375 112.226562 172.34375 27.8125 0 53.210938-15.621094 72.816407-41.355468-14.761719 10.976562-31.265625 17.308593-48.769531 17.308593zm0 0" fill="#a06e50"/><path d="m119.726562 7.5c-46.242187 0-85.925781 42.972656-103.109374 104.3125 15.027343 25.71875 41.96875 53.640625 86.574218 47.992188 70.886719-8.972657 106.183594 15.910156 125.667969 59.617187 1.953125-12.726563 3.09375-25.933594 3.09375-39.574219 0-95.1875-50.246094-172.347656-112.226563-172.347656zm0 0" fill="#faebc8"/><path d="m70.957031 24.808594c-.03125-.042969-.0625-.078125-.09375-.117188-24.210937 18.03125-43.574219 49.023438-54.246093 87.125 4.289062 7.339844 9.585937 14.839844 15.953124 21.707032 3.664063-43.363282 17.773438-81.664063 38.386719-108.714844zm0 0" fill="#f5dcb4"/><path d="m205.367188 53.886719c-22.628907-34.75-53.042969-53.886719-85.640626-53.886719-32.597656 0-63.011718 19.136719-85.640624 53.886719-21.980469 33.753906-34.085938 78.488281-34.085938 125.960937 0 58.960938 19.140625 114.183594 51.203125 147.722656 2.859375 2.996094 7.609375 3.101563 10.601563.242188 2.996093-2.863281 3.101562-7.613281.242187-10.605469-29.460937-30.816406-47.046875-82.164062-47.046875-137.359375 0-17.152344 1.667969-33.890625 4.878906-49.785156 6.636719 9.394531 16.140625 17.847656 27.644532 24.328125 19.015624 10.710937 42.089843 15.285156 64.972656 12.875 26.929687-2.835937 51.03125.589844 69.703125 9.898437 1.074219.535157 2.214843.789063 3.339843.789063 2.753907 0 5.40625-1.523437 6.71875-4.15625 1.847657-3.707031.339844-8.210937-3.367187-10.058594-16.710937-8.332031-36.988281-12.527343-59.378906-12.414062l-3.792969-9.378907c-1.554688-3.839843-5.929688-5.691406-9.769531-4.136718-3.839844 1.554687-5.691407 5.925781-4.136719 9.765625l1.832031 4.527343c-.90625.082032-1.808593.152344-2.71875.25-42.339843 4.457032-77.222656-18.542968-85.441406-44.332031 5.230469-16.859375 12.339844-32.382812 21.171875-45.945312 1.738281-2.675781 3.53125-5.234375 5.363281-7.695313 1.238281.800782 2.65625 1.207032 4.078125 1.207032 1.917969 0 3.839844-.734376 5.304688-2.199219 2.867187-2.867188 2.917968-7.476563.167968-10.417969 17.140626-18.179688 37.234376-27.96875 58.15625-27.96875 18.988282 0 37.292969 8.0625 53.328126 23.140625l-2.4375.949219c-3.863282 1.5-5.773438 5.847656-4.273438 9.707031 1.152344 2.96875 3.988281 4.78125 6.992188 4.78125.902343 0 1.824218-.164063 2.714843-.511719l7.953125-3.089844c3.046875 3.753907 5.984375 7.78125 8.792969 12.09375 20.414063 31.351563 31.652344 73.175782 31.652344 117.777344 0 5.003906-.148438 9.96875-.425781 14.894532-1.152344-1.796876-2.347657-3.5625-3.636719-5.269532-2.496094-3.304687-7.203125-3.957031-10.503907-1.460937-3.304687 2.5-3.957031 7.203125-1.460937 10.507812 5.765625 7.628907 9.839844 16.398438 12.121094 26.070313-4.914063 27.402344-14.359375 52.472656-27.746094 73.03125-19.765625 30.355468-45.71875 47.074218-73.070313 47.074218-10.972656 0-21.792968-2.699218-32.164062-8.019531-3.6875-1.890625-8.207031-.4375-10.097656 3.25-1.890625 3.683594-.433594 8.207031 3.25 10.097657 3.769531 1.933593 7.597656 3.574218 11.46875 4.929687v129.507813c0 15.183593 12.355468 27.539062 27.542968 27.539062 15.183594 0 27.539063-12.355469 27.539063-27.539062v-129.472657c21.964844-7.648437 42.003906-24.460937 58.101563-49.179687 21.980468-33.757813 34.085937-78.492188 34.085937-125.960938 0-47.472656-12.105469-92.207031-34.085937-125.960937zm-73.101563 430.574219c0 6.914062-5.625 12.539062-12.539063 12.539062-6.917968 0-12.542968-5.625-12.542968-12.539062v-125.730469c4.148437.640625 8.332031.964843 12.542968.964843 4.21875 0 8.40625-.328124 12.539063-.964843zm0 0"/><path d="m98.636719 78.605469c-2.507813-3.292969-7.214844-3.929688-10.507813-1.417969-3.296875 2.507812-3.933594 7.214844-1.421875 10.511719l8.015625 10.519531c1.476563 1.9375 3.710938 2.957031 5.972656 2.957031 1.582032 0 3.179688-.5 4.539063-1.535156 3.292969-2.511719 3.929687-7.21875 1.417969-10.511719zm0 0"/><path d="m161.519531 100.394531-6.011719 6.011719c-2.929687 2.929688-2.929687 7.675781 0 10.605469 1.460938 1.464843 3.382813 2.199219 5.300782 2.199219 1.917968 0 3.839844-.734376 5.304687-2.199219l6.011719-6.011719c2.929688-2.929688 2.929688-7.675781 0-10.605469-2.929688-2.929687-7.679688-2.929687-10.605469 0zm0 0"/><path d="m140.339844 56.171875c-4.109375.511719-7.027344 4.261719-6.511719 8.371094l1.5 12.023437c.476563 3.796875 3.707031 6.570313 7.433594 6.570313.3125 0 .625-.019531.941406-.058594 4.109375-.511719 7.023437-4.261719 6.511719-8.371094l-1.503906-12.023437c-.511719-4.113282-4.265626-7.023438-8.371094-6.511719zm0 0"/><path d="m111.523438 37.65625c1.714843-3.769531.046874-8.214844-3.722657-9.929688-3.773437-1.710937-8.21875-.046874-9.933593 3.722657l-2.503907 5.511719c-1.714843 3.773437-.046875 8.21875 3.722657 9.933593 1.007812.457031 2.0625.671875 3.101562.671875 2.847656 0 5.574219-1.632812 6.832031-4.398437zm0 0"/><path d="m205.742188 144.953125c2.589843-3.234375 2.066406-7.957031-1.167969-10.542969l-7.515625-6.011718c-3.234375-2.589844-7.957032-2.0625-10.542969 1.171874-2.585937 3.234376-2.0625 7.953126 1.171875 10.542969l7.515625 6.011719c1.382813 1.105469 3.035156 1.644531 4.679687 1.644531 2.199219-.003906 4.378907-.964843 5.859376-2.816406zm0 0"/><path d="m58.875 104.542969-5.007812 7.515625c-2.300782 3.445312-1.367188 8.101562 2.078124 10.402344 1.277344.851562 2.726563 1.257812 4.152344 1.257812 2.425782 0 4.804688-1.171875 6.25-3.339844l5.007813-7.515625c2.296875-3.445312 1.367187-8.101562-2.078125-10.398437-3.445313-2.300782-8.101563-1.367188-10.402344 2.078125zm0 0"/></svg>