<svg height="512pt" viewBox="-88 0 512 512.00084" width="512pt" xmlns="http://www.w3.org/2000/svg"><path d="m38.121094 16.914062c-3.648438-8.058593-13.140625-11.636718-21.203125-7.988281-8.058594 3.648438-11.632813 13.140625-7.984375 21.203125l57.160156 126.105469 29.191406-13.214844zm0 0" fill="#a5cdff"/><path d="m107.394531 150.996094c-5.472656-12.089844-19.710937-17.453125-31.800781-11.980469-12.09375 5.472656-17.457031 19.710937-11.984375 31.804687l19.265625 43.089844 43.785156-19.820312zm0 0" fill="#c4deff"/><path d="m247.820312 200.097656c0 44.242188-35.863281 80.105469-80.105468 80.105469-44.242188 0-80.105469-35.863281-80.105469-80.105469 0-44.242187 35.863281-80.109375 80.105469-80.109375 44.242187 0 80.105468 35.867188 80.105468 80.109375zm0 0" fill="#ffedb1"/><path d="m203.761719 244.15625c-44.242188 0-80.105469-35.867188-80.105469-80.109375 0-12.8125 3.085938-24.878906 8.433594-35.621094-26.339844 13.117188-44.484375 40.242188-44.484375 71.671875 0 44.238282 35.867187 80.105469 80.109375 80.105469 31.425781 0 58.550781-18.140625 71.671875-44.484375-10.742188 5.351562-22.808594 8.4375-35.625 8.4375zm0 0" fill="#ffe17d"/><path d="m311.90625 328.265625h-168.222656c-8.847656 0-16.023438-7.171875-16.023438-16.019531s7.175782-16.019532 16.023438-16.019532h168.222656c8.847656 0 16.019531 7.171876 16.019531 16.019532s-7.171875 16.019531-16.019531 16.019531zm0 0" fill="#c4deff"/><path d="m308.503906 312.246094c2.175782-7.472656 3.402344-15.355469 3.402344-23.53125 0-46.453125-37.660156-84.113282-84.113281-84.113282s-84.109375 37.660157-84.109375 84.113282c0 8.175781 1.222656 16.058594 3.398437 23.53125zm0 0" fill="#c4deff"/><path d="m311.855469 296.222656h-67.316407c-8.15625 0-15.980468-3.238281-21.746093-9.007812-4.417969-4.417969-7.476563-10.070313-8.46875-16.242188-3.445313-21.371094-13.144531-40.628906-27.175781-55.882812-25.910157 14.335937-43.464844 41.917968-43.464844 73.625 0 2.535156.15625 5.03125.382812 7.507812h-.332031c-6.625 0-12.84375 3.972656-15.050781 10.21875-3.988282 11.285156 4.273437 21.824219 15 21.824219h168.222656c10.722656 0 18.988281-10.539063 15-21.824219-2.207031-6.246094-8.425781-10.21875-15.050781-10.21875zm0 0" fill="#a5cdff"/><path d="m31.535156 328.265625 14.695313 161.664063c.75 8.253906 7.667969 14.570312 15.957031 14.570312h211.054688c8.289062 0 15.207031-6.316406 15.957031-14.570312l14.695312-161.664063zm0 0" fill="#fff6d8"/><path d="m299.527344 376.332031h-67.726563c-22.121093 0-40.054687 17.929688-40.054687 40.050781 0 22.121094 17.933594 40.054688 40.054687 40.054688h60.445313zm0 0" fill="#b4e6a0"/><path d="m129.394531 352.296875h172.316407l2.183593-24.03125h-272.359375l14.695313 161.664063c.75 8.253906 7.667969 14.570312 15.957031 14.570312h41.441406l-6.234375-118.476562c-.964843-18.332032 13.640625-33.726563 32-33.726563zm0 0" fill="#ffedb1"/><g fill="#cdf5a0"><path d="m191.746094 328.265625h-168.222656c-8.847657 0-16.023438-7.171875-16.023438-16.019531s7.175781-16.019532 16.023438-16.019532h168.222656c8.847656 0 16.019531 7.171876 16.019531 16.019532s-7.171875 16.019531-16.019531 16.019531zm0 0"/><path d="m188.347656 312.246094c2.175782-7.472656 3.398438-15.355469 3.398438-23.53125 0-46.453125-37.65625-84.113282-84.113282-84.113282-46.453124 0-84.109374 37.660157-84.109374 84.113282 0 8.175781 1.222656 16.058594 3.398437 23.53125zm0 0"/><path d="m294.429688 432.40625 2.914062-32.042969h-65.542969c-8.847656 0-16.023437 7.171875-16.023437 16.019531 0 8.847657 7.175781 16.023438 16.023437 16.023438zm0 0"/></g><path d="m191.746094 296.222656h-119.773438c-.230468-2.476562-.386718-4.972656-.386718-7.507812 0-38.097656 25.34375-70.238282 60.082031-80.582032-7.621094-2.273437-15.675781-3.53125-24.035157-3.53125-46.453124 0-84.109374 37.660157-84.109374 84.113282 0 2.535156.15625 5.03125.382812 7.507812h-.382812c-8.847657 0-16.023438 7.175782-16.023438 16.023438s7.175781 16.019531 16.023438 16.019531h168.222656c8.847656 0 16.019531-7.171875 16.019531-16.019531s-7.171875-16.023438-16.019531-16.023438zm0 0" fill="#b4e6a0"/><path d="m319.386719 289.941406c.011719-.582031.019531-1.160156.019531-1.726562 0-40.191406-26.015625-74.417969-62.089844-86.730469-.332031-49.128906-40.398437-88.996094-89.601562-88.996094-23.835938 0-45.523438 9.355469-61.59375 24.585938-2.363282-2.03125-5.003906-3.6875-7.816406-4.929688l-53.351563-118.324219c-5.347656-11.816406-19.316406-17.078124-31.125-11.726562-11.816406 5.347656-17.078125 19.3125-11.734375 31.117188l53.335938 118.292968c-2.238282 7.132813-1.96875 15.078125 1.347656 22.410156l13.828125 30.511719c-32.121094 14.253907-54.582031 46.445313-54.582031 83.789063 0 .570312.003906 1.144531.019531 1.726562-9.316407 3.132813-16.042969 11.949219-16.042969 22.304688 0 12.96875 10.550781 23.519531 23.523438 23.519531h1.160156l14.078125 154.84375c1.105469 12.195313 11.179687 21.390625 23.421875 21.390625h211.058594c12.246093 0 22.316406-9.195312 23.425781-21.390625l14.078125-154.84375h1.160156c12.96875 0 23.519531-10.550781 23.519531-23.519531 0-10.355469-6.726562-19.171875-16.039062-22.304688zm-151.671875-162.453125c39.671875 0 72.203125 31.132813 74.472656 70.246094-4.691406-.742187-9.496094-1.132813-14.394531-1.132813-22.285157 0-43.425781 7.957032-60.101563 22.488282-16.09375-14-37.101562-22.488282-60.054687-22.488282-4.898438 0-9.703125.390626-14.394531 1.132813 2.269531-39.113281 34.796874-70.246094 74.472656-70.246094zm-147.703125-111.730469c4.28125-1.9375 9.339843-.03125 11.273437 4.238282l49.484375 109.757812c-2.804687.414063-5.589843 1.214844-8.269531 2.429688-2.683594 1.214844-5.109375 2.769531-7.265625 4.578125l-49.472656-109.726563c-1.933594-4.277344-.027344-9.339844 4.25-11.277344zm58.671875 130.089844c5.875-2.660156 12.683594-1.554687 17.445312 2.414063-8.492187 11.265625-14.386718 24.585937-16.800781 39.070312l-8.886719-19.605469c-3.757812-8.304687-.058594-18.121093 8.242188-21.878906zm-63.683594 166.398438c0-4.699219 3.824219-8.523438 8.523438-8.523438h24.03125c4.140624 0 7.5-3.355468 7.5-7.5 0-4.140625-3.359376-7.5-7.5-7.5h-16.523438c-.003906-.167968-.007812-.34375-.007812-.511718 0-42.242188 34.367187-76.609376 76.613281-76.609376 42.242187 0 76.609375 34.367188 76.609375 76.609376 0 2.164062-.125 4.480468-.398438 7.289062-.203125 2.105469.492188 4.199219 1.914063 5.765625 1.421875 1.5625 3.4375 2.457031 5.550781 2.457031h.433594c4.699218 0 8.523437 3.824219 8.523437 8.519532 0 4.699218-3.824219 8.523437-8.523437 8.523437h-168.222656c-4.699219 0-8.523438-3.820313-8.523438-8.519531zm277.675781 56.585937h-4.800781c-4.140625 0-7.5 3.355469-7.5 7.5 0 4.140625 3.359375 7.5 7.5 7.5h3.4375l-5.917969 65.105469h-53.59375c-17.953125 0-32.554687-14.601562-32.554687-32.554688 0-17.949218 14.601562-32.550781 32.554687-32.550781h24.035157c4.140624 0 7.5-3.359375 7.5-7.5 0-4.144531-3.359376-7.5-7.5-7.5h-24.035157c-26.222656 0-47.554687 21.332031-47.554687 47.550781 0 26.222657 21.332031 47.554688 47.554687 47.554688h52.230469l-2.300781 25.3125c-.402344 4.417969-4.050781 7.75-8.488281 7.75h-211.054688c-4.4375 0-8.085938-3.332031-8.488281-7.75l-13.953125-153.484375h255.9375zm19.230469-48.066406h-98.242188c1.03125-2.644531 1.601563-5.515625 1.601563-8.519531 0-10.355469-6.726563-19.171875-16.039063-22.300782.011719-.585937.019532-1.160156.019532-1.730468 0-22.160156-7.910156-42.503906-21.050782-58.367188 13.839844-11.789062 31.253907-18.246094 49.597657-18.246094 42.246093 0 76.613281 34.367188 76.613281 76.613282 0 2.160156-.128906 4.476562-.398438 7.285156-.207031 2.105469.488282 4.199219 1.910157 5.765625s3.4375 2.460937 5.554687 2.460937h.433594c4.699219 0 8.519531 3.820313 8.519531 8.519532 0 4.699218-3.820312 8.519531-8.519531 8.519531zm0 0"/></svg>