<svg height="511pt" viewBox="-128 0 511 511.99988" width="511pt" xmlns="http://www.w3.org/2000/svg"><path d="m212.410156 223.265625-165.667968-76.035156c-41.777344 35.964843-26.15625 88.277343-26.15625 88.277343l193.828124 5.796876zm0 0" fill="#d7bef0"/><path d="m79.140625 86.660156s-44.421875 28.15625-31.0625 73.746094c10.578125 36.101562 57.894531 71.542969 156.761719 71.542969 17.367187 0 35.960937 2.671875 35.960937 2.671875l-1.003906-40.414063zm0 0" fill="#ebd2ff"/><path d="m58.871094 320.125 20.453125 177.277344c.46875 4.046875 3.894531 7.097656 7.964843 7.097656h81.90625c4.070313 0 7.496094-3.054688 7.960938-7.097656l20.457031-177.277344zm0 0" fill="#f7d291"/><path d="m216.417969 320.128906h-176.355469c-4.425781 0-8.015625-3.589844-8.015625-8.015625v-48.097656h192.386719v48.097656c0 4.425781-3.585938 8.015625-8.015625 8.015625zm0 0" fill="#f7d291"/><path d="m96.175781 288.066406h128.257813v-24.050781h-192.386719v48.097656c0 4.425781 3.589844 8.015625 8.015625 8.015625h40.082031v-16.03125c0-8.855468 7.175781-16.03125 16.03125-16.03125zm0 0" fill="#f0c382"/><path d="m160.304688 86.058594c-38.703126-33.019532-24.046876-78.558594-24.046876-78.558594s-63.460937 23.148438-59.453124 79.960938c3.003906 42.582031 43.53125 52.875 80.789062 72.328124 75.523438 39.429688 83.207031 74.835938 83.207031 74.835938 31.398438-81.265625-48.429687-121.210938-80.496093-148.566406zm0 0" fill="#c4deff"/><path d="m232.449219 264.015625h-208.417969c-8.855469 0-16.03125-7.179687-16.03125-16.03125 0-8.855469 7.175781-16.03125 16.03125-16.03125h208.417969c8.855469 0 16.035156 7.175781 16.035156 16.03125 0 8.851563-7.179687 16.03125-16.035156 16.03125zm0 0" fill="#d7bef0"/><path d="m170.285156 143.085938c-37.257812-19.449219-77.785156-29.746094-80.789062-72.324219-1.058594-15 2.625-27.613281 8.5625-38.113281-12.546875 12.785156-22.949219 30.765624-21.253906 54.8125 3.003906 42.582031 43.53125 52.875 80.789062 72.328124 75.523438 39.429688 83.207031 74.835938 83.207031 74.835938 1.988281-5.148438 3.527344-10.128906 4.660157-14.949219 2.078124-8.839843-.042969-18.148437-5.871094-25.109375-11.460938-13.699218-32.160156-32.085937-69.304688-51.480468zm0 0" fill="#a5cdff"/><path d="m129.359375 344.175781h65.476563l2.773437-24.046875h-138.738281l20.453125 177.273438c.46875 4.046875 3.894531 7.097656 7.964843 7.097656h24.191407l-6.144531-135.183594c-.621094-13.695312 10.3125-25.140625 24.023437-25.140625zm0 0" fill="#f0c382"/><path d="m248.902344 231.179688c26.273437-71.441407-28.171875-110.382813-64.324219-136.230469-7.28125-5.203125-14.15625-10.121094-19.402344-14.597657-34.277343-29.238281-22.296875-68.902343-21.777343-70.554687.875-2.726563.125-5.714844-1.941407-7.699219-2.0625-1.988281-5.078125-2.625-7.769531-1.644531-.699219.253906-17.289062 6.394531-33.480469 19.976563-20.8125 17.457031-31.488281 39.289062-31.0625 63.351562-4.207031 3.292969-11.421875 9.640625-17.839843 18.730469-9.601563 13.601562-14.058594 28.523437-13.226563 43.859375-32.105469 28.816406-29.050781 66.78125-26.324219 81.546875-6.746094 4.144531-11.253906 11.585937-11.253906 20.066406 0 12.976563 10.558594 23.53125 23.53125 23.53125h.515625v40.597656c0 8.554688 6.960937 15.515625 15.515625 15.515625h12.125l19.6875 170.632813c.902344 7.832031 7.527344 13.738281 15.414062 13.738281h81.90625c7.882813 0 14.507813-5.90625 15.414063-13.738281l19.6875-170.632813h12.121094c8.558593 0 15.515625-6.960937 15.515625-15.515625v-40.597656h.515625c12.976562 0 23.535156-10.558594 23.535156-23.53125 0-6.578125-2.71875-12.53125-7.082031-16.804687zm-177.34375-129.59375c9.964844 37.386718 48.746094 52.089843 83.378906 65.214843 3.875 1.46875 8.203125-.480469 9.671875-4.355469 1.464844-3.875-.484375-8.203124-4.355469-9.671874-37.6875-14.28125-73.28125-27.769532-75.96875-65.839844-1.472656-20.898438 7.015625-39.316406 25.234375-54.738282 5.84375-4.941406 11.820313-8.800781 16.84375-11.628906-.355469 4.203125-.476562 9.082032-.074219 14.394532 2.136719 28.21875 17.03125 46.464843 29.148438 56.804687 5.738281 4.894531 12.867188 9.992187 20.417969 15.386719 18.1875 13.003906 38.800781 27.742187 51.984375 47.324218 14.230468 21.140626 16.683594 44.121094 7.480468 70.15625-.941406-.113281-1.894531-.179687-2.871093-.179687h-27.609375c-62.933594 0-135.269532-17.378906-149.5625-66.152344-7.867188-26.84375 6.050781-46.523437 16.28125-56.714843zm56.683594 235.460937 23.0625 23.0625-23.0625 23.0625-23.0625-23.0625zm52.875 60.59375c-.039063.039063-.078126.070313-.117188.105469l-19.089844 19.09375-23.0625-23.0625 23.0625-23.058594 20.003906 20.003906zm-52.875 52.867187-23.0625-23.0625 23.0625-23.0625 23.058593 23.0625zm-10.605469-56.730468-23.0625 23.058594-19.210938-19.210938-.796875-6.902344 20.007813-20.007812zm-45.265625-22.074219-3.023438-26.214844 14.621094 14.621094zm11.597656 55.742187-4.632812 4.628907-1.207032-10.464844zm-2.4375 23.648438 13.042969-13.042969 25.359375 25.359375c.097656.519532.246094 1.03125.453125 1.523438h-37.257813zm80.378906-13.042969 13.039063 13.042969-1.59375 13.84375h-38.328125zm15.234375-5.976562-4.628906-4.628907 5.835937-5.835937zm6.964844-60.371094-11.59375-11.59375 14.621094-14.621094zm-22.199219-22.199219-21.875-21.875h43.746094zm-67.335937 0-21.875-21.875h43.746093zm74.621093 147.496094h-81.90625c-.261718 0-.480468-.195312-.511718-.457031l-1.917969-16.605469h86.761719l-1.914063 16.605469c-.03125.261719-.25.457031-.511719.457031zm63.253907-240.484375h-24.046875c-4.140625 0-7.5 3.359375-7.5 7.5s3.359375 7.5 7.5 7.5h8.53125v40.597656c0 .285157-.230469.515625-.515625.515625h-176.355469c-.285156 0-.515625-.230468-.515625-.515625v-40.597656h136.792969c4.140625 0 7.5-3.359375 7.5-7.5s-3.359375-7.5-7.5-7.5h-152.308594c-4.703125 0-8.53125-3.828125-8.53125-8.53125s3.828125-8.53125 8.53125-8.53125h16.03125c4.140625 0 7.5-3.359375 7.5-7.5 0-4.144531-3.359375-7.5-7.5-7.5h-13.667969c-1.902343-11.191406-3.796875-37.859375 15.0625-60.089844 4.875 15.050781 17.273438 35.671875 48.414063 51.996094 29.226562 15.324219 67.910156 23.09375 114.972656 23.09375h27.609375c4.703125 0 8.53125 3.828125 8.53125 8.53125s-3.828125 8.53125-8.535156 8.53125zm0 0"/></svg>