<svg height="512pt" viewBox="-88 0 512 512.00045" width="512pt" xmlns="http://www.w3.org/2000/svg"><path d="m57.429688 18.058594c-4.90625-9.753906-16.960938-13.441406-26.480469-8.097656-9.523438 5.34375-12.65625 17.550781-6.886719 26.820312l52.570312 84.457031 26.554688-10.523437zm0 0" fill="#edebed"/><path d="m191.867188 472.441406h-48.097657c-16.109375 0-29.441406 11.878906-31.722656 27.355469-.363281 2.460937 1.5 4.710937 3.988281 4.710937h103.5625c2.492188 0 4.351563-2.25 3.988282-4.710937-2.277344-15.476563-15.609376-27.355469-31.71875-27.355469zm0 0" fill="#dcebff"/><path d="m23.527344 232.304688 124.480468 147.480468c2.4375 2.894532 3.78125 6.558594 3.78125 10.34375v82.316406h32.0625v-82.316406c0-3.785156 1.339844-7.449218 3.78125-10.34375l124.476563-147.480468zm0 0" fill="#dcebff"/><path d="m151.785156 384.265625h32.066406v88.175781h-32.066406zm0 0" fill="#c4deff"/><path d="m247.980469 103.699219c0 44.273437-35.890625 80.164062-80.164063 80.164062-44.269531 0-80.160156-35.890625-80.160156-80.164062 0-44.269531 35.890625-80.160157 80.160156-80.160157 44.273438 0 80.164063 35.890626 80.164063 80.160157zm0 0" fill="#ebd2ff"/><path d="m203.890625 147.789062c-44.269531 0-80.160156-35.890624-80.160156-80.160156 0-12.824218 3.085937-24.902344 8.441406-35.648437-26.359375 13.128906-44.515625 40.273437-44.515625 71.722656 0 44.269531 35.890625 80.160156 80.160156 80.160156 31.449219 0 58.59375-18.152343 71.722656-44.515625-10.75 5.355469-22.824218 8.441406-35.648437 8.441406zm0 0" fill="#d7bef0"/><path d="m308.707031 215.925781c2.175781-7.476562 3.402344-15.363281 3.402344-23.546875 0-46.484375-37.683594-84.167968-84.171875-84.167968-46.484375 0-84.167969 37.683593-84.167969 84.167968 0 8.183594 1.226563 16.070313 3.402344 23.546875zm0 0" fill="#cdf5a0"/><path d="m311.25 199.894531h-58.015625c-9.609375 0-18.917969-3.367187-26.300781-9.523437-7.152344-5.960938-11.789063-14.238282-13.929688-23.300782-4.335937-18.371093-13.371094-34.921874-25.738281-48.363281-25.925781 14.34375-43.496094 41.945313-43.496094 73.671875 0 2.539063.160157 5.035156.386719 7.515625h-.335938c-6.628906 0-12.851562 3.976563-15.058593 10.226563-3.992188 11.292968 4.277343 21.835937 15.007812 21.835937h168.339844c9.734375 0 17.445313-8.679687 15.8125-18.722656-1.28125-7.882813-8.6875-13.339844-16.671875-13.339844zm0 0" fill="#b4e6a0"/><path d="m191.867188 231.957031h-168.339844c-8.851563 0-16.03125-7.175781-16.03125-16.03125 0-8.851562 7.179687-16.03125 16.03125-16.03125h168.339844c8.855468 0 16.03125 7.179688 16.03125 16.03125 0 8.855469-7.175782 16.03125-16.03125 16.03125zm0 0" fill="#ff9ba0"/><path d="m188.464844 215.925781c2.175781-7.476562 3.402344-15.363281 3.402344-23.546875 0-46.484375-37.683594-84.167968-84.167969-84.167968s-84.171875 37.683593-84.171875 84.167968c0 8.183594 1.226562 16.070313 3.40625 23.546875zm0 0" fill="#ff9ba0"/><path d="m157.511719 472.441406h-13.742188c-16.109375 0-29.441406 11.878906-31.71875 27.355469-.363281 2.460937 1.496094 4.710937 3.988281 4.710937h27.730469c0-17.710937 6.152344-32.066406 13.742188-32.066406zm0 0" fill="#c4deff"/><path d="m148.007812 379.789062 3.777344 4.476563 16.03125-.003906-22.101562-88.414063c-5.058594-20.234375 10.246094-39.839844 31.105468-39.839844h115.28125l20.007813-23.703124h-288.582031l124.476562 147.480468s.003906.003906.003906.003906zm0 0" fill="#c4deff"/><path d="m191.867188 199.894531h-119.859376c-.226562-2.480469-.382812-4.976562-.382812-7.515625 0-38.121094 25.359375-70.285156 60.121094-80.636718-7.625-2.273438-15.6875-3.53125-24.050782-3.53125-46.484374 0-84.167968 37.683593-84.167968 84.167968 0 2.539063.15625 5.035156.386718 7.515625h-.386718c-8.851563 0-16.03125 7.175781-16.03125 16.03125s7.179687 16.03125 16.03125 16.03125h168.339844c8.855468 0 16.03125-7.175781 16.03125-16.03125s-7.179688-16.03125-16.03125-16.03125zm0 0" fill="#ff8087"/><path d="m315.84375 239.503906c11.203125-1.796875 19.792969-11.527344 19.792969-23.234375 0-10.359375-6.734375-19.179687-16.054688-22.3125.015625-.585937.023438-1.160156.023438-1.734375 0-40.214844-26.035157-74.464844-62.132813-86.78125-.332031-49.160156-40.417968-89.050781-89.65625-89.050781-34.140625 0-63.886718 19.1875-79.023437 47.339844l-24.660157-49.035157c-3.300781-6.566406-8.992187-11.363281-16.015624-13.511718-7.027344-2.148438-14.425782-1.351563-20.835938 2.242187-6.40625 3.597657-10.941406 9.496094-12.769531 16.613281-1.828125 7.117188-.695313 14.472657 3.1875 20.710938l44.699219 71.804688c-27.671876 15.796874-46.367188 45.589843-46.367188 79.667968 0 .574219.007812 1.148438.023438 1.734375-9.320313 3.132813-16.054688 11.953125-16.054688 22.3125 0 11.703125 8.589844 21.4375 19.792969 23.234375l124.492187 147.5v77.933594h-.515625c-21.8125 0-39.5625 17.746094-39.5625 39.5625 0 4.140625 3.359375 7.5 7.5 7.5h112.222657c4.140624 0 7.5-3.359375 7.5-7.5 0-21.816406-17.746094-39.5625-39.5625-39.5625h-.515626v-77.933594zm-148.027344-208.113281c39.707032 0 72.261719 31.15625 74.527344 70.304687-4.695312-.746093-9.503906-1.136718-14.40625-1.136718-22.300781 0-43.457031 7.960937-60.144531 22.503906-16.101563-14.011719-37.125-22.503906-60.09375-22.503906-4.902344 0-9.714844.390625-14.40625 1.136718 2.265625-39.148437 34.820312-70.304687 74.523437-70.304687zm-137.382812 1.433594c-1.699219-2.726563-2.191406-5.941407-1.394532-9.054688.796876-3.109375 2.78125-5.6875 5.582032-7.261719 2.800781-1.570312 6.035156-1.921874 9.109375-.980468 3.070312.9375 5.558593 3.039062 7 5.90625l30.617187 60.886718c-2.027344 7.375-3.132812 15.125-3.183594 23.121094-.695312.234375-1.386718.480469-2.070312.734375zm-6.902344 174.914062h24.050781c4.140625 0 7.5-3.355469 7.5-7.5 0-4.140625-3.359375-7.5-7.5-7.5h-16.542969c0-.167969-.007812-.347656-.007812-.515625 0-42.273437 34.394531-76.667968 76.667969-76.667968 42.273437 0 76.664062 34.394531 76.664062 76.667968 0 2.164063-.125 4.484375-.398437 7.292969-.203125 2.105469.492187 4.199219 1.914062 5.765625 1.421875 1.5625 3.4375 2.457031 5.550782 2.457031h.4375c4.703124 0 8.53125 3.828125 8.53125 8.53125s-3.828126 8.53125-8.53125 8.53125h-168.335938c-4.703125 0-8.53125-3.828125-8.53125-8.53125s3.828125-8.53125 8.53125-8.53125zm16.144531 32.066407h152.191407c12.972656 0 23.53125-10.558594 23.53125-23.535157 0-10.359375-6.734376-19.179687-16.054688-22.3125.015625-.585937.023438-1.160156.023438-1.734375 0-22.171875-7.917969-42.53125-21.070313-58.402344 13.855469-11.800781 31.28125-18.261718 49.640625-18.261718 42.277344 0 76.667969 34.390625 76.667969 76.664062 0 2.167969-.128907 4.484375-.398438 7.292969-.207031 2.105469.488281 4.199219 1.910157 5.765625 1.421874 1.566406 3.4375 2.457031 5.554687 2.457031h.433594c4.703125 0 8.53125 3.828125 8.53125 8.53125 0 4.707031-3.828125 8.535157-8.496094 8.535157l-72.140625-.34375c-.015625 0-.027344 0-.039062 0-4.125 0-7.480469 3.332031-7.5 7.460937-.019532 4.144531 3.324218 7.515625 7.464843 7.535156l56.101563.269531-115.660156 137.035157h-25.097657zm175.582031 257.195312h-94.878906c3.175782-9.886719 12.460938-17.0625 23.390625-17.0625h48.09375c10.933594 0 20.21875 7.175781 23.394531 17.0625zm-55.972656-32.0625v-73.175781h17.066406v73.175781zm0 0"/></svg>