<svg height="512pt" viewBox="0 -88 512.00037 512" width="512pt" xmlns="http://www.w3.org/2000/svg"><path d="m464.429688 328.164062c0-17.703124-14.351563-32.058593-32.058594-32.058593h-32.4375c-7.09375 0-12.757813-5.558594-13.289063-12.632813-2.042969-27.179687-15.511719-53.644531-40.648437-71.492187-32.664063-23.1875-77.542969-23.246094-110.210938-.0625-39.136718 27.773437-50.171875 76.476562-33.414062 116.246093zm0 0" fill="#b67f5f"/><path d="m183.925781 312.136719-176.425781-304.65625 304.65625 176.425781zm0 0" fill="#f7d291"/><path d="m281.371094 167.878906-42.808594 42.808594c-16.503906 16.503906-43.5625 15.464844-58.757812-2.253906l-172.304688-200.953125 176.425781 304.65625 128.230469-128.230469zm0 0" fill="#f0c382"/><path d="m239.726562 300.238281.585938-.691406c-.3125.011719-.480469.292969-.585938.691406zm0 0" fill="#ff8087"/><path d="m328.460938 181.410156c-6.480469-4.664062-15.570313-3.289062-21.214844 2.355469l-101.722656 101.722656c-7.316407 6.765625-16.835938 10.617188-26.839844 10.617188h-18.800782c-17.707031 0-32.058593 14.355469-32.058593 32.058593 0 0 129.265625-.027343 127.894531-.027343-.128906 0-.253906 0-.378906-.003907-17.257813-.234374-25.078125-22.046874-12.875-34.25l88.054687-88.054687c6.886719-6.882813 6.199219-18.472656-2.058593-24.417969zm0 0" fill="#a06e50"/><path d="m504.5 320.644531h-33.300781c-3.519531-18.238281-19.59375-32.0625-38.84375-32.0625h-29.835938c-4.34375 0-8.046875-3.238281-8.429687-7.375-2.21875-23.992187-12.824219-46.582031-29.851563-63.613281-6.625-6.625-14.175781-12.292969-22.488281-16.945312 1.832031-6.726563.800781-14.03125-3.324219-19.753907-4.082031-5.667969-10.375-9.238281-17.269531-9.796875-4.855469-.390625-9.636719.730469-13.75 3.128906l-296.117188-173.199218c-2.945312-1.722656-6.679687-1.242188-9.089843 1.167968-2.414063 2.414063-2.894531 6.148438-1.171875 9.09375l162.191406 277.292969h-3.410156c-19.253906 0-35.328125 13.824219-38.84375 32.0625h-9.253906c-4.140626 0-7.5 3.359375-7.5 7.5 0 4.144531 3.359374 7.5 7.5 7.5h392.789062c4.140625 0 7.5-3.355469 7.5-7.5 0-4.140625-3.359375-7.5-7.5-7.5zm-341.515625-62.171875-19.074219-32.613281h19.335938v32.613281zm95.488281-95.226562h-32.613281v-19.335938l32.613281 19.074219zm-32.613281 15h32.613281v32.613281h-32.613281zm-15 32.613281h-32.613281v-32.613281h32.613281zm0-47.613281h-32.613281v-32.613282h24.917968l7.695313 4.503907zm-47.613281 0h-32.613282v-32.613282h32.613282zm0-47.613282h-32.613282v-27.421874l32.613282 19.074218zm-47.613282-32.613281v32.613281h-32.613281v-32.613281zm-32.613281-15v-7.660156l13.09375 7.660156zm-15 28.09375-7.660156-13.09375h7.660156zm47.613281 34.519531v32.613282h-8.347656l-19.074218-32.613282zm15 47.613282h32.613282v32.613281h-28.109375l-4.503907-7.695313zm47.613282 47.613281h32.613281v32.613281h-32.613281zm47.613281 28.808594v-28.808594h28.808594zm47.613281-47.613281v-28.808594h11.09375l11.179688 6.539062zm-205.453125-155.46875v16.433593h-16.433593l-23.152344-39.585937zm91.789063 251.996093h18.644531c3.125 0 6.257813-.308593 9.316406-.917969 4.0625-.808593 6.699219-4.757812 5.890625-8.820312s-4.757812-6.703125-8.820312-5.890625c-1.410156.28125-2.847656.460937-4.289063.554687l-2.304687-3.941406v-11.09375h28.808594l-2.367188 2.371094c-2.929688 2.925781-2.929688 7.675781 0 10.605469 1.464844 1.464843 3.382812 2.195312 5.304688 2.195312 1.917968 0 3.835937-.730469 5.300781-2.195312l97.929687-97.929688c1.773438-1.773437 4.226563-2.667969 6.726563-2.472656 2.539062.207031 4.777343 1.488281 6.304687 3.609375 2.339844 3.25 1.648438 8.316406-1.570312 11.535156l-16.398438 16.398438c-2.929687 2.929687-2.929687 7.679687 0 10.605468 2.929688 2.929688 7.675782 2.929688 10.605469 0l14.84375-14.84375c7.386719 4.050782 14.066406 9.019532 19.894531 14.84375 14.5625 14.5625 23.628906 33.878907 25.527344 54.394532 1.089844 11.769531 11.351562 20.992187 23.363281 20.992187h29.835938c10.929687 0 20.210937 7.175781 23.390625 17.0625h-319.328125c3.175781-9.886719 12.460937-17.0625 23.390625-17.0625zm0 0"/></svg>