<svg height="511pt" viewBox="-120 0 511 511.99819" width="511pt" xmlns="http://www.w3.org/2000/svg"><path d="m136.257812 456.402344 58.652344 29.328125c3.359375 1.675781 5.476563 5.109375 5.476563 8.859375 0 5.472656-4.433594 9.910156-9.90625 9.910156h-108.441407c-5.472656 0-9.910156-4.4375-9.910156-9.910156 0-3.75 2.121094-7.183594 5.476563-8.859375zm0 0" fill="#c4deff"/><path d="m72.128906 494.589844c0 5.472656 4.4375 9.910156 9.910156 9.910156h40.476563l13.742187-48.097656-58.648437 29.328125c-3.359375 1.675781-5.480469 5.109375-5.480469 8.859375zm0 0" fill="#a5cdff"/><path d="m240.46875 87.660156c0 13.28125-10.765625 24.050782-24.046875 24.050782s-24.050781-10.769532-24.050781-24.050782 10.769531-24.046875 24.050781-24.046875 24.046875 10.765625 24.046875 24.046875zm0 0" fill="#ff8087"/><path d="m27.09375 195.878906s-16.722656-43.347656 28.003906-73.148437l171.84375 59.121093 10.523438 21.042969zm0 0" fill="#d7bef0"/><path d="m248.484375 191.871094s-19.972656 0-37.339844 0c-98.867187 0-146.179687-29.113282-156.757812-58.769532-13.363281-37.449218 28.722656-59.917968 28.722656-59.917968l133.3125 62.574218 32.5625 41.585938zm0 0" fill="#ebd2ff"/><path d="m166.609375 72.03125c-38.703125-27.125-24.046875-64.53125-24.046875-64.53125s-63.460938 19.011719-59.453125 65.683594c3.003906 34.976562 41.269531 47.902344 80.789063 59.410156 71.523437 20.824219 82.589843 47.671875 84.28125 56.390625 29.179687-65.515625-49.789063-94.683594-81.570313-116.953125zm0 0" fill="#ebd2ff"/><path d="m248.484375 223.933594h-224.453125c-8.851562 0-16.03125-7.175782-16.03125-16.03125 0-8.851563 7.179688-16.03125 16.03125-16.03125h224.453125c8.855469 0 16.03125 7.179687 16.03125 16.03125 0 8.855468-7.175781 16.03125-16.03125 16.03125zm0 0" fill="#d7bef0"/><path d="m24.03125 223.933594s11.460938 5.089844 25.386719 48.765625c14.695312 46.09375 36.074219 159.65625 86.839843 159.65625 50.769532 0 72.144532-113.5625 86.84375-159.65625 13.921876-43.671875 25.382813-48.765625 25.382813-48.765625zm0 0" fill="#dcebff"/><path d="m24.03125 223.933594s11.460938 5.089844 25.386719 48.765625c14.695312 46.09375 36.074219 159.65625 86.839843 159.65625v-208.421875zm0 0" fill="#a5cdff"/><path d="m88.160156 223.933594s4.914063 5.089844 10.882813 48.765625c6.296875 46.09375 15.457031 159.65625 37.214843 159.65625 21.757813 0 30.921876-113.5625 37.21875-159.65625 5.96875-43.671875 10.878907-48.765625 10.878907-48.765625zm0 0" fill="#c4deff"/><path d="m144.273438 464.417969h-16.03125c-8.851563 0-16.03125-7.175781-16.03125-16.03125s7.179687-16.03125 16.03125-16.03125h16.03125c8.855468 0 16.035156 7.175781 16.035156 16.03125s-7.179688 16.03125-16.035156 16.03125zm0 0" fill="#dcebff"/><path d="m181.898438 112.542969c-39.523438-11.507813-77.789063-24.433594-80.792969-59.414063-.890625-10.390625 1.574219-19.398437 5.925781-27.144531-13.703125 10.59375-25.738281 26.054687-23.921875 47.199219 3.003906 34.976562 41.269531 47.902344 80.789063 59.410156 71.523437 20.824219 82.59375 47.671875 84.28125 56.390625 7.054687-15.835937 7.75-29.53125 4.359374-41.535156-11.472656-10.898438-32.34375-23.757813-70.640624-34.90625zm0 0" fill="#d7bef0"/><path d="m272.015625 207.902344c0-9.792969-6.015625-18.207032-14.546875-21.746094 8.785156-24.011719 5.003906-46.222656-11.300781-66.117188-2.601563-3.175781-5.460938-6.195312-8.488281-9.09375 6.433593-5.875 10.289062-14.265624 10.289062-23.285156 0-14.648437-10.039062-27-23.601562-30.53125 3.5625-26.644531 27.921874-43.152344 28.246093-43.367187 3.453125-2.277344 4.410157-6.917969 2.140625-10.375-2.273437-3.464844-6.921875-4.425781-10.386718-2.15625-1.359376.894531-31.539063 21.101562-35.097657 55.707031-10.015625 2.351562-18.339843 9.527344-22.15625 19.058594-6.074219-3.582032-11.730469-6.976563-16.199219-10.109375-33.175781-23.25-21.851562-54.375-21.367187-55.652344 1.042969-2.671875.476563-5.707031-1.46875-7.816406-1.941406-2.109375-4.921875-2.925781-7.667969-2.101563-.695312.207032-17.183594 5.21875-33.332031 16.347656-20.820313 14.347657-31.675781 32.386719-31.644531 52.414063-4.28125 2.808594-11.1875 7.921875-17.386719 15.132813-9.671875 11.257812-14.304687 23.625-13.746094 36.382812-20.484375 15.414062-26.28125 34.203125-27.488281 47.445312-.617188 6.738282-.121094 12.71875.613281 17.28125-9.769531 2.863282-16.925781 11.898438-16.925781 22.582032 0 12.058594 9.117188 22.019531 20.816406 23.371094 2.667969 2.570312 11.023438 12.550781 20.953125 43.703124 2.375 7.4375 4.890625 16.558594 7.808594 27.121094 7.40625 26.8125 16.621094 60.179688 29.511719 87.21875 9.730468 20.40625 20.296875 34.511719 31.925781 42.535156-4.203125 4.253907-6.804687 10.09375-6.804687 16.535157 0 4.945312 1.535156 9.535156 4.152343 13.328125l-34.609375 17.304687c-5.9375 2.96875-9.625 8.933594-9.625 15.570313 0 9.597656 7.808594 17.410156 17.40625 17.410156h108.441406c9.601563 0 17.410157-7.8125 17.410157-17.410156 0-6.636719-3.6875-12.605469-9.625-15.570313l-34.609375-17.304687c2.617187-3.792969 4.152344-8.382813 4.152344-13.328125 0-6.441407-2.601563-12.28125-6.804688-16.535157 11.628906-8.023437 22.195312-22.128906 31.925781-42.535156 12.886719-27.039062 22.105469-60.410156 29.511719-87.21875 2.914062-10.5625 5.433594-19.683594 7.804688-27.121094 9.933593-31.152343 18.289062-41.132812 20.957031-43.703124 11.703125-1.351563 20.816406-11.3125 20.816406-23.371094zm-55.59375-136.789063c9.125 0 16.546875 7.421875 16.546875 16.546875 0 5.378906-2.605469 10.335938-6.847656 13.410156-8.34375-6.4375-17.285156-12.136718-25.796875-17.261718 1.75-7.339844 8.40625-12.695313 16.097656-12.695313zm-138.398437 14.535157c4.167968 12.816406 13.402343 23.429687 28.007812 32.199218 15.871094 9.527344 36.089844 15.820313 55.640625 21.90625 3.953125 1.230469 8.160156-.976562 9.390625-4.929687 1.230469-3.957031-.976562-8.160157-4.933594-9.390625-37.515625-11.679688-72.953125-22.710938-75.546875-52.890625 0-.019531 0-.035157-.003906-.054688-1.382813-16.359375 6.933594-30.921875 24.726563-43.277343 5.992187-4.160157 12.132812-7.386719 17.242187-9.730469-.257813 3.242187-.304687 6.886719.058594 10.800781 1.214843 13.203125 7.355469 32.230469 29.699219 47.890625 5.742187 4.019531 12.871093 8.207031 20.417968 12.640625 18.164063 10.667969 38.75 22.757812 51.84375 38.734375 13.757813 16.789063 16.167969 34.289063 7.488282 54.824219h-30.910157c-96.222656 0-140.417969-27.785156-149.695312-53.789063-7.582031-21.253906 6.570312-36.964843 16.574219-44.933593zm-13.484376 212.457031c-2.957031-10.714844-5.515624-19.964844-7.976562-27.683594-5.996094-18.8125-11.683594-31.039063-16.480469-38.988281h43.265625c1.652344 4.863281 4.734375 16.476562 8.261719 42.28125 1.027344 7.511718 2.109375 16.667968 3.363281 27.269531 6.441406 54.402344 12.011719 91.726563 19.496094 113.867187-23.980469-22.808593-39.667969-79.585937-49.929688-116.746093zm128.347657 196.488281c0 1.328125-1.078125 2.40625-2.40625 2.40625h-108.441407c-1.328124 0-2.410156-1.078125-2.410156-2.40625 0-.917969.511719-1.746094 1.332032-2.15625l42.171874-21.082031c1.644532.363281 3.355469.566406 5.109376.566406h16.03125c1.757812 0 3.464843-.203125 5.113281-.566406l42.171875 21.082031c.820312.410156 1.328125 1.238281 1.328125 2.15625zm-48.613281-54.738281c4.707031 0 8.535156 3.828125 8.535156 8.53125s-3.828125 8.53125-8.535156 8.53125h-16.03125c-4.703126 0-8.53125-3.828125-8.53125-8.53125s3.828124-8.53125 8.53125-8.53125zm71.683593-169.433594c-2.464843 7.71875-5.019531 16.96875-7.976562 27.683594-10.265625 37.160156-25.949219 93.941406-49.933594 116.75 7.484375-22.140625 13.054687-59.46875 19.496094-113.871094.496093-4.1875.972656-8.214844 1.433593-12.019531.496094-4.113282-2.4375-7.847656-6.546874-8.34375-4.117188-.503906-7.851563 2.433594-8.347657 6.546875-.460937 3.816406-.9375 7.851562-1.4375 12.054687-2.953125 24.96875-6.632812 56.042969-11.582031 81.503906-6.957031 35.8125-13.222656 42.730469-14.804688 43.949219-1.582031-1.21875-7.847656-8.136719-14.808593-43.949219-4.945313-25.460937-8.625-56.535156-11.582031-81.503906-1.261719-10.671875-2.351563-19.890625-3.398438-27.539062-1.851562-13.550782-4.410156-29.261719-7.457031-40.246094h74.492187c-1.527344 5.492188-3.046875 12.59375-4.558594 21.308594-.707031 4.082031 2.03125 7.964844 6.109376 8.671875.433593.074219.867187.109375 1.289062.109375 3.582031 0 6.75-2.574219 7.382812-6.222656 2.308594-13.328126 4.25-20.355469 5.441407-23.871094h43.265625c-4.796875 7.953125-10.480469 20.175781-16.476563 38.988281zm32.527344-53.988281h-224.453125c-4.703125 0-8.53125-3.828125-8.53125-8.53125s3.828125-8.53125 8.53125-8.53125h48.101562c4.140626 0 7.5-3.359375 7.5-7.5s-3.359374-7.5-7.5-7.5h-39.6875c-1.808593-9.304688-3.035156-29.871094 15.453126-47.234375 8.679687 22.160156 31.207031 35.789062 48.792968 43.359375 29.082032 12.523437 67.589844 18.875 114.453125 18.875h37.339844c4.707031 0 8.535156 3.828125 8.535156 8.53125s-3.828125 8.53125-8.535156 8.53125zm0 0"/></svg>