<svg height="512pt" viewBox="-144 0 512 512.00065" width="512pt" xmlns="http://www.w3.org/2000/svg"><path d="m24.027344 172.675781s-13.382813-37.605469 24.222656-63.636719l136.941406 66.132813zm0 0" fill="#ff8087"/><path d="m31.929688 199.886719 79.78125 304.613281 79.777343-304.613281zm0 0" fill="#f7d291"/><g fill="#ff9ba0"><path d="m23.535156 199.886719h176.351563c8.855469 0 16.03125-7.175781 16.03125-16.03125s-7.175781-16.03125-16.03125-16.03125h-176.351563c-8.855468 0-16.035156 7.175781-16.035156 16.03125s7.179688 16.03125 16.035156 16.03125zm0 0"/><path d="m67.121094 64.613281s-31.5625 19.539063-21.542969 52.105469c7.933594 25.789062 49.433594 51.105469 123.582031 51.105469h27.144532l-.089844-18.039063zm0 0"/><path d="m129.746094 63.613281c-18.46875-15.007812-20.734375-33.632812-19.941406-45.199219.332031-4.882812-4.902344-8.125-9.1875-5.757812-13.867188 7.644531-35.554688 24.160156-33.496094 51.960938 2.253906 30.414062 31.789062 39.316406 60.59375 51.660156 64.15625 27.496094 68.589844 51.546875 68.589844 51.546875 35.570312-50.605469-42.507813-84.671875-66.558594-104.210938zm0 0"/></g><path d="m183.09375 231.953125 8.394531-32.066406h-159.558593l79.78125 304.613281-20.972657-237.664062c-1.652343-18.75 13.121094-34.882813 31.941407-34.882813zm0 0" fill="#f0c382"/><path d="m199.886719 199.886719h-176.351563c-8.855468 0-16.035156-7.175781-16.035156-16.03125s7.179688-16.03125 16.035156-16.03125h176.351563c8.855469 0 16.03125 7.175781 16.03125 16.03125s-7.175781 16.03125-16.03125 16.03125zm0 0" fill="#ff8087"/><path d="m148.390625 100.246094c-28.804687-12.347656-58.339844-21.25-60.59375-51.664063-1.128906-15.25 4.902344-27.085937 12.851563-35.941406-.011719.007813-.019532.007813-.035157.015625-13.863281 7.644531-35.550781 24.160156-33.492187 51.960938 2.253906 30.414062 31.789062 39.316406 60.59375 51.660156 64.15625 27.496094 68.589844 51.546875 68.589844 51.546875 8.546874-12.160157 10.484374-23.355469 8.234374-33.636719-9.578124-9.214844-26.390624-21.1875-56.148437-33.941406zm0 0" fill="#ff8087"/><path d="m208.042969 161.78125c4.636719-9.644531 6.039062-19.355469 4.160156-28.980469-5.417969-27.730469-36.941406-48.03125-59.960937-62.851562-7.25-4.667969-13.515626-8.703125-17.765626-12.15625-24.457031-19.871094-16.019531-46.789063-15.660156-47.890625.917969-2.714844.207032-5.710938-1.824218-7.726563-2.035157-2.015625-5.039063-2.699219-7.742188-1.761719-.535156.1875-13.257812 4.671876-25.644531 14.566407-15.78125 12.605469-24.050781 28.363281-24.113281 45.792969-10.910157 8.234374-24.988282 25.226562-23.1875 47.347656-20.574219 16.765625-23.550782 39.390625-21.652344 53.945312-8.585938 3.511719-14.652344 11.953125-14.652344 21.789063 0 12.976562 10.558594 23.53125 23.53125 23.53125h2.609375l78.3125 299.015625c.863281 3.296875 3.847656 5.597656 7.257813 5.597656 3.40625 0 6.390624-2.300781 7.253906-5.597656l78.3125-299.015625h2.609375c12.976562 0 23.53125-10.554688 23.53125-23.53125 0-10.109375-6.40625-18.75-15.375-22.074219zm-82.210938 259.199219-3.515625-3.511719 6.007813-6.011719zm31.636719-120.800781-15.296875 15.296874-19.855469-19.855468 19.855469-19.855469 17.191406 17.191406zm-91.519531 0-1.890625-7.222657 17.191406-17.191406 19.855469 19.855469-19.855469 19.855468zm-6.292969-24.03125-7.796875-29.769532 18.78125 18.78125zm52.054688 30.082031 19.855468 19.855469-19.855468 19.851562-19.855469-19.855469zm0-21.214844-19.855469-19.855469 19.855469-19.855468 19.855468 19.855468zm-30.460938-30.460937-19.855469-19.855469 19.855469-19.855469 19.855469 19.855469zm0 82.132812 19.855469 19.855469-16.160157 16.160156-8.242187-31.46875zm13.84375 74.769531 6.011719 6.011719-3.515625 3.515625zm-3.238281-24.449219 19.855469-19.855468 19.855468 19.855468-19.855468 19.851563zm46.621093-14.304687-16.160156-16.15625 19.855469-19.855469 4.542969 4.542969zm14.300782-107.542969 18.785156-18.78125-7.796875 29.769532zm-10.605469-10.605468-19.855469-19.855469 19.855469-19.855469 19.855469 19.855469zm-30.460937-30.460938-16.707032-16.707031h33.414063zm-60.921876 0-6.457031-6.457031-2.683593-10.25h25.847656zm60.921876 250.804688-9.71875-37.105469 9.71875-9.71875 9.71875 9.71875zm67.378906-257.261719-6.457032 6.457031-16.707031-16.707031h25.847657zm20.796875-25.25h-176.351563c-4.707031 0-8.535156-3.828125-8.535156-8.53125 0-4.707031 3.828125-8.53125 8.535156-8.53125h16.035156c4.140626 0 7.5-3.359375 7.5-7.5 0-4.144531-3.359374-7.5-7.5-7.5h-9.96875c-1.0625-7.742188-1.042968-22.691407 11.015626-35.746094.5625 1.207031 1.171874 2.40625 1.851562 3.589844 1.386719 2.410156 3.910156 3.761719 6.507812 3.761719 1.269532 0 2.554688-.324219 3.734376-1.003907 3.589843-2.0625 4.824218-6.648437 2.757812-10.238281-1.175781-2.042969-2.09375-4.121094-2.722656-6.171875-5.027344-16.332031 2.6875-28.792969 9.605468-36.125 8.957032 25.484375 37.34375 35.75 62.816407 44.941406 3.894531 1.40625 8.191406-.613281 9.597656-4.507812 1.40625-3.898438-.609375-8.195313-4.507813-9.601563-32.46875-11.71875-53.882812-21.191406-55.660156-45.164062-1.042968-14.09375 5.035156-26.582032 18.058594-37.109375 3.222656-2.605469 6.503906-4.777344 9.503906-6.539063-.433594 13.324219 3.066406 32.945313 22.855469 49.023438 4.894531 3.976562 11.480469 8.21875 19.105469 13.125 20.746094 13.363281 49.164062 31.660156 53.359375 53.117187 1.566406 8.027344-.332031 16.109375-5.78125 24.644531h-22.542969c-40.152344 0-74.207031-7.816406-95.890625-22.015624-3.464844-2.269532-8.117187-1.300782-10.382813 2.164062-2.269531 3.46875-1.300781 8.117188 2.164063 10.382812 17.046875 11.164063 48.945313 24.46875 104.109375 24.46875h30.730469c4.703125 0 8.53125 3.828126 8.53125 8.53125 0 4.707032-3.824219 8.535157-8.53125 8.535157zm0 0"/></svg>