<svg height="512pt" viewBox="-161 0 512 512.001" width="512pt" xmlns="http://www.w3.org/2000/svg"><path d="m115.367188 337.914062-38.027344-.523437-4.292969 143.074219c-.410156 13.148437 10.140625 24.035156 23.296875 24.035156 13.160156 0 23.710938-10.886719 23.296875-24.035156zm0 0" fill="#f5dcb4"/><path d="m76.472656 366.339844c6.484375 1.195312 13.117188 1.886718 19.875 1.886718 6.757813 0 13.386719-.691406 19.875-1.886718l-.855468-28.425782-38.027344-.523437zm0 0" fill="#ebc9a0"/><path d="m171.921875 79.5625c-1.921875-40.339844-35.1875-72.0625-75.574219-72.0625-40.390625 0-73.65625 31.722656-75.578125 72.0625l-8.40625 176.539062c-2.285156 47.949219 35.976563 88.078126 83.980469 88.078126 48.007812 0 86.269531-40.128907 83.984375-88.078126zm0 0" fill="#b67f5f"/><path d="m124.492188 328.144531c-48.007813 0-86.269532-40.125-83.984376-88.078125l8.40625-176.535156c1-20.980469 10.523438-39.574219 25.070313-52.640625-29.667969 9.175781-51.664063 36.101563-53.214844 68.671875l-8.40625 176.539062c-2.285156 47.949219 35.976563 88.078126 83.980469 88.078126 21.058594 0 40.234375-7.726563 54.941406-20.441407-8.410156 2.828125-17.40625 4.40625-26.792968 4.40625zm0 0" fill="#a06e50"/><path d="m190.4375 168.90625c-1.417969-2.601562-4.160156-4.019531-6.9375-3.894531l-3.894531-81.757813 3.976562-2.882812c3.355469-2.429688 4.101563-7.121094 1.667969-10.472656-1.730469-2.390626-4.609375-3.445313-7.332031-2.984376-4.34375-22.003906-17.296875-40.757812-35.140625-52.769531.941406-2.507812.503906-5.441406-1.386719-7.589843-2.738281-3.109376-7.476563-3.414063-10.585937-.675782l-1.191407 1.046875c-10.199219-4.445312-21.445312-6.925781-33.265625-6.925781-27.992187 0-52.8125 13.792969-67.898437 35.089844-3.824219-1.203125-7.949219.816406-9.308594 4.625-1.035156 2.902344-.171875 6.019531 1.941406 8-4.519531 9.605468-7.269531 20.238281-7.804687 31.492187l-5.167969 108.53125c-2.882813-.234375-5.765625 1.21875-7.21875 3.929688-1.957031 3.652343-.582031 8.199219 3.070313 10.152343l3.390624 1.820313-2.480468 52.101563c-1.257813 26.449218 8.984375 52.132812 28.105468 70.472656 2.992188 2.863281 7.738282 2.765625 10.605469-.222656 2.867188-2.992188 2.769531-7.738282-.222656-10.605469-4.507813-4.324219-8.402344-9.148438-11.679687-14.324219l5.894531-2.949219c3.707031-1.851562 5.207031-6.355469 3.355469-10.0625-1.851563-3.703125-6.355469-5.207031-10.0625-3.355469l-5.945313 2.972657c-3.796875-9.828125-5.582031-20.441407-5.066406-31.210938l2.140625-44.972656.667968.359375c1.125.601562 2.335938.886719 3.535157.886719 2.675781 0 5.265625-1.433594 6.617187-3.957031 1.953125-3.652344.582032-8.199219-3.070312-10.152344l-6.960938-3.730469 3.484375-73.140625 12.753907-12.753906c2.929687-2.929688 2.929687-7.675782 0-10.605469-2.929688-2.929687-7.675782-2.929687-10.605469 0l-1.089844 1.085937.933594-19.554687c.453125-9.523437 2.847656-18.496094 6.769531-26.566406l7.355469 2.625c.832031.296875 1.683593.441406 2.519531.441406 3.082031 0 5.96875-1.914063 7.066406-4.980469 1.390625-3.902344-.640625-8.191406-4.542968-9.585937l-4.164063-1.488281c12.511719-15.511719 31.664063-25.367188 53.082031-25.367188 7.144532 0 14.035156 1.109375 20.511719 3.148438l-2.753906 2.425781c-3.113281 2.734375-3.414063 7.476562-.675781 10.585937 1.480468 1.683594 3.550781 2.542969 5.632812 2.542969 1.757812 0 3.527344-.613281 4.949219-1.867187l7.824219-6.886719c18.6875 11.398437 31.480468 31.542969 32.59375 54.972656l4.394531 92.234375-10.605469 5.78125c-3.636719 1.984375-4.976562 6.542969-2.992188 10.175781 1.363282 2.496094 3.933594 3.910157 6.589844 3.910157 1.214844 0 2.445313-.292969 3.585938-.914063l4.214844-2.300781 3.21875 67.648437c1.007812 21.121094-6.476563 41.183594-21.070313 56.488281-5.925781 6.214844-12.703125 11.273438-20.0625 15.117188l-4.253906-11.808594c-1.402344-3.898437-5.699219-5.917968-9.597657-4.515625-3.894531 1.402344-5.917968 5.699219-4.515624 9.597657l4.433593 12.3125c-6.863281 1.984374-14.050781 3.03125-21.425781 3.03125-10.152344 0-20.003906-1.949219-29.285156-5.792969-3.828125-1.585938-8.214844.230469-9.796875 4.058593-1.585938 3.828126.230469 8.214844 4.058593 9.796876 2.75 1.140624 5.542969 2.140624 8.371094 3l-4.140625 132.488281c-.261719 8.40625 2.816407 16.363281 8.671875 22.40625 5.855469 6.039062 13.710938 9.363281 22.121094 9.363281 8.414062 0 16.269531-3.324219 22.125-9.367188 5.851562-6.039062 8.933594-13.996093 8.667969-22.402343l-4.136719-132.457031c14.929688-4.507813 28.511719-12.820313 39.621094-24.476563 17.453125-18.300781 26.402344-42.292969 25.199218-67.554687l-3.570312-74.917969 3.195312-1.738281c3.636719-1.988282 4.976563-6.542969 2.992188-10.179688zm-78.289062 311.792969c.132812 4.3125-1.445313 8.394531-4.449219 11.496093-3.003907 3.097657-7.039063 4.804688-11.351563 4.804688-4.316406 0-8.351562-1.707031-11.355468-4.804688-3.003907-3.101562-4.582032-7.183593-4.449219-11.496093l4.058593-129.789063c3.871094.492188 7.785157.769532 11.742188.769532 3.964844 0 7.886719-.25 11.746094-.738282zm0 0"/><path d="m139.246094 221.875-13.527344 2.171875c-4.089844.65625-6.871094 4.503906-6.21875 8.59375.59375 3.6875 3.777344 6.3125 7.398438 6.3125.394531 0 .792968-.03125 1.199218-.097656l13.523438-2.171875c4.09375-.65625 6.875-4.503906 6.21875-8.59375s-4.507813-6.871094-8.59375-6.214844zm0 0"/><path d="m96.675781 279.4375c-3.382812-2.390625-8.0625-1.59375-10.457031 1.785156l-8.519531 12.023438c-2.394531 3.382812-1.59375 8.0625 1.785156 10.457031 1.316406.933594 2.832031 1.382813 4.328125 1.382813 2.351562 0 4.667969-1.105469 6.128906-3.167969l8.515625-12.023438c2.394531-3.378906 1.597657-8.058593-1.78125-10.457031zm0 0"/><path d="m75.640625 244.128906c1.808594 0 3.625-.652344 5.0625-1.972656 3.054687-2.800781 3.261719-7.542969.460937-10.597656l-14.695312-16.03125c-2.796875-3.054688-7.542969-3.257813-10.597656-.460938-3.050782 2.796875-3.257813 7.542969-.460938 10.597656l14.699219 16.03125c1.480469 1.613282 3.5 2.433594 5.53125 2.433594zm0 0"/><path d="m133.277344 266.800781c-2.613282 3.214844-2.125 7.9375 1.089844 10.550781l8.019531 6.511719c1.390625 1.132813 3.0625 1.683594 4.722656 1.683594 2.179687 0 4.34375-.949219 5.824219-2.773437 2.613281-3.214844 2.125-7.9375-1.089844-10.550782l-8.015625-6.511718c-3.214844-2.613282-7.9375-2.125-10.550781 1.089843zm0 0"/><path d="m105.605469 178.066406-11.355469 9.351563c-3.195312 2.632812-3.652344 7.359375-1.019531 10.554687 1.480469 1.800782 3.628906 2.734375 5.792969 2.734375 1.675781 0 3.367187-.5625 4.761718-1.710937l11.355469-9.351563c3.199219-2.632812 3.65625-7.359375 1.023437-10.558593-2.632812-3.195313-7.359374-3.652344-10.558593-1.019532zm0 0"/><path d="m70.230469 152.941406c3.679687-1.902344 5.121093-6.429687 3.21875-10.105468-1.90625-3.679688-6.429688-5.121094-10.109375-3.21875l-14.527344 7.515624c-3.679688 1.902344-5.121094 6.429688-3.214844 10.105469 1.332032 2.578125 3.953125 4.058594 6.667969 4.058594 1.160156 0 2.335937-.269531 3.4375-.839844zm0 0"/><path d="m113.304688 141.15625c.878906 3.375 3.921874 5.609375 7.25 5.609375.628906 0 1.265624-.078125 1.898437-.242187l15.363281-4.007813c4.007813-1.046875 6.410156-5.144531 5.367188-9.152344-1.046875-4.007812-5.144532-6.410156-9.152344-5.363281l-15.363281 4.007812c-4.007813 1.046876-6.410157 5.140626-5.363281 9.148438zm0 0"/><path d="m68.976562 96.582031c-1.714843 3.769531-.046874 8.21875 3.722657 9.933594l16.535156 7.511719c1.007813.460937 2.0625.675781 3.097656.675781 2.851563 0 5.578125-1.632813 6.832031-4.398437 1.714844-3.769532.050782-8.214844-3.722656-9.929688l-16.535156-7.515625c-3.769531-1.714844-8.214844-.046875-9.929688 3.722656zm0 0"/><path d="m124.40625 91.820312c1.710938 0 3.433594-.582031 4.839844-1.773437l8.683594-7.347656c3.164062-2.675781 3.558593-7.410157.882812-10.570313s-7.40625-3.558594-10.570312-.882812l-8.683594 7.351562c-3.164063 2.675782-3.558594 7.40625-.882813 10.566406 1.484375 1.753907 3.601563 2.65625 5.730469 2.65625zm0 0"/><path d="m93.84375 70.113281c1.003906 0 2.023438-.203125 3.003906-.632812 3.792969-1.660157 5.523438-6.082031 3.863282-9.875l-7.011719-16.03125c-1.660157-3.796875-6.085938-5.527344-9.878907-3.867188-3.792968 1.660157-5.523437 6.082031-3.863281 9.878907l7.011719 16.03125c1.234375 2.816406 3.988281 4.496093 6.875 4.496093zm0 0"/></svg>